<svg width="334" height="382" viewBox="0 0 334 382" fill="none" xmlns="http://www.w3.org/2000/svg">
<path d="M21.5935 192.173C27.1242 214.752 42.7329 223.826 54.097 228.692C66.1856 233.874 84.1501 239.022 111.363 235.571C115.14 235.091 119.102 234.445 123.248 233.615L150.614 209.214L153.912 206.274L182.325 180.938L150.129 176.588L149.446 176.496C149.446 176.496 144.844 180.95 135.363 185.208C133.948 185.841 132.428 186.475 130.798 187.085C121.675 190.499 109.135 193.299 93.0159 192.793C55.4803 191.631 29.0198 156.673 29.0198 156.673C29.0198 156.673 13.8659 160.586 21.5935 192.173Z" fill="white"/>
<path d="M97.9714 234.193C100.487 234.113 103.109 233.956 105.836 233.706C106.028 233.197 106.255 232.697 106.517 232.209C108.067 229.323 110.648 227.214 113.784 226.269C114.877 225.942 115.991 225.768 117.101 225.746C118.686 223.859 120.335 222.026 121.876 220.097C122.654 219.126 123.473 218.187 124.251 217.213C125.022 216.234 125.777 215.242 126.564 214.272C128.167 212.353 129.623 210.322 131.273 208.414C131.561 208.059 131.849 207.703 132.138 207.349C128.092 209.074 122.827 211.989 116.337 214.902C113.391 216.225 110.193 217.55 106.743 218.761C106.582 219.806 106.439 221.008 106.307 222.398C105.772 228.055 102.698 232.279 97.9714 234.193ZM83.6543 233.764C78.8879 231.966 74.042 228.618 69.6207 223.73C64.9926 223.344 60.1454 222.571 55.0749 221.322C45.2873 218.91 37.3529 214.385 31.1072 207.928C37.9966 218.037 47.5418 223.208 55.0667 226.433C61.8862 229.355 71.1068 232.564 83.6543 233.764ZM91.8777 231.9C92.2722 231.9 92.6598 231.885 93.0337 231.855C98.674 231.4 102.361 227.746 102.898 222.077C102.969 221.326 103.046 220.621 103.129 219.956C95.4909 222.326 86.7305 224.032 76.8484 224.032C76.1143 224.032 75.3733 224.023 74.6255 224.004C80.6931 229.593 87.0387 231.9 91.8777 231.9Z" fill="#B9AFBE"/>
<path d="M94.1131 239.181C102.715 239.181 112.527 238.281 123.735 236.027C125.067 235.758 125.93 234.461 125.662 233.128C125.393 231.796 124.094 230.931 122.764 231.201C88.2605 238.143 67.6032 231.805 55.0667 226.433C44.2519 221.797 29.2623 213.144 23.9864 191.588C18.431 168.888 25.2684 161.717 28.3159 159.732C34.1027 166.753 58.8525 194.194 92.9379 195.256C131.886 196.464 150.39 179.006 151.159 178.262C152.136 177.317 152.162 175.76 151.217 174.782C150.273 173.807 148.717 173.781 147.741 174.722C147.528 174.923 129.757 191.482 93.0899 190.336C57.15 189.217 31.2415 155.526 30.984 155.185L29.9937 153.877L28.4062 154.288C27.6913 154.473 10.9924 159.199 19.2062 192.759C25.0054 216.453 41.3441 225.906 53.1286 230.957C62.1602 234.827 75.2021 239.181 94.1131 239.181Z" fill="#1A1A1A"/>
<path d="M69.4536 235.898C69.7276 235.898 70.007 235.842 70.2754 235.724C92.2873 226.1 86.6854 192.98 86.4361 191.576C86.2389 190.458 85.1732 189.712 84.0556 189.912C82.9393 190.109 82.1929 191.175 82.3901 192.292C82.4449 192.605 87.6743 223.632 68.6291 231.96C67.5895 232.415 67.1156 233.626 67.5704 234.665C67.9073 235.437 68.662 235.898 69.4536 235.898Z" fill="#1A1A1A"/>
<path d="M54.7543 144.672L68.5687 188.635C68.9344 189.802 68.303 191.047 67.1456 191.442L45.2516 198.895C44.0504 199.303 42.7479 198.641 42.3739 197.428L27.8281 150.309C27.4323 149.027 28.2404 147.685 29.5594 147.434L52.1862 143.135C53.3079 142.923 54.4119 143.583 54.7543 144.672Z" fill="#DC0000"/>
<path d="M36.1147 177.151L32.0509 163.986C32.0495 163.985 32.0482 163.985 32.0482 163.983L36.1147 177.151Z" fill="white"/>
<path d="M29.0061 154.134L29.0088 154.132L27.8282 150.309C27.4323 149.027 28.2404 147.685 29.5594 147.435L37.0652 146.009L29.5608 147.432C28.2377 147.685 27.4323 149.026 27.8254 150.312L29.0061 154.134Z" fill="#EDEDFF"/>
<path d="M32.0508 163.986L29.0088 154.131L29.006 154.133L32.048 163.983C32.048 163.985 32.0494 163.985 32.0508 163.986Z" fill="#C3BAC7"/>
<path d="M55.5543 147.216L54.7544 144.669C54.5284 143.955 53.9778 143.426 53.3094 143.209C53.9791 143.428 54.5297 143.958 54.7544 144.671L55.5529 147.216C55.5543 147.216 55.5543 147.216 55.5543 147.216Z" fill="#EDEDFF"/>
<path d="M43.0465 198.459L29.2773 153.855C28.8773 152.576 29.6895 151.228 31.0058 150.981L53.6353 146.681C53.7764 146.655 53.9175 146.641 54.0558 146.641C54.616 146.641 55.1502 146.852 55.5529 147.216L54.7543 144.671C54.5297 143.958 53.9791 143.428 53.3093 143.208C53.0888 143.136 52.8546 143.096 52.6149 143.096C52.4738 143.096 52.3314 143.11 52.189 143.137L37.0652 146.008L29.5594 147.434C28.2404 147.685 27.4323 149.027 27.8281 150.309L29.0088 154.131L32.0508 163.986L36.1146 177.151L42.3753 197.426C42.5055 197.844 42.7451 198.195 43.0465 198.459Z" fill="#FF4141"/>
<path d="M35.1791 155.677L45.6598 188.782C46.0693 190.08 47.4609 190.79 48.747 190.355L59.7385 186.693C61.0055 186.268 61.693 184.91 61.2821 183.64L51.133 152.017C50.7549 150.848 49.5606 150.135 48.3567 150.371L45.2516 150.972C44.849 151.05 44.5832 151.438 44.6558 151.842C44.8339 152.821 44.1888 153.759 43.2122 153.946C42.3027 154.118 41.4084 153.577 41.1399 152.691L41.0701 152.461C40.9591 152.093 40.5879 151.869 40.2113 151.942L37.035 152.557C35.6133 152.835 34.7395 154.292 35.1791 155.677Z" fill="white"/>
<path d="M66.1581 189.177L44.6627 196.495L30.2484 149.807L52.4615 145.587L66.1581 189.177ZM44.5202 201.479C45.0311 201.479 45.5447 201.394 46.0446 201.224L67.9387 193.771C70.3822 192.938 71.6888 190.359 70.9163 187.897L57.1019 143.934C56.3856 141.654 54.075 140.27 51.726 140.717L29.0992 145.016C27.7829 145.265 26.6324 146.067 25.9421 147.214C25.2504 148.362 25.082 149.755 25.4764 151.036L40.0222 198.153C40.4016 199.381 41.2399 200.378 42.3849 200.961C43.0588 201.305 43.7861 201.479 44.5202 201.479Z" fill="#1A1A1A"/>
<path d="M24.8108 162.858C24.2958 162.017 23.2192 161.121 23.6562 160.521C27.3994 155.385 34.771 152.79 37.0528 160.308C38.0636 163.639 36.5817 165.306 37.0528 166.271C37.0528 166.271 39.3333 168.197 39.6881 171.055C39.9428 173.099 39.1854 174.288 39.8031 175.941C39.8031 175.941 45.7926 183.975 42.5575 192.399C41.5522 195.015 39.7607 196.126 40.1428 198.82L24.8108 162.858Z" fill="white"/>
<path d="M40.1401 201.281C40.2552 201.281 40.3702 201.273 40.488 201.257C41.8344 201.066 42.7699 199.82 42.5795 198.475C42.4617 197.651 42.7055 197.203 43.4287 196.029C43.8697 195.31 44.4189 194.417 44.8545 193.283C48.154 184.691 43.2835 176.678 42.0426 174.848C41.9891 174.574 42.0165 174.259 42.0878 173.629C42.1727 172.875 42.2782 171.934 42.1302 170.752C41.818 168.241 40.4688 166.332 39.5347 165.281C39.7963 164.128 40.2072 162.224 39.4073 159.593C37.8254 154.383 34.33 153.336 32.3878 153.178C27.9693 152.812 22.7714 156.317 20.3005 161.323C19.6993 162.542 20.2006 164.018 21.4182 164.62C22.6386 165.221 24.1137 164.72 24.715 163.502C26.2613 160.368 29.5992 157.893 31.9851 158.082C32.4467 158.121 33.852 158.236 34.6984 161.023C35.1313 162.449 34.9244 163.364 34.7231 164.247C34.5259 165.118 34.2793 166.202 34.8423 167.351L35.0696 167.817L35.4641 168.151C35.4654 168.151 37.0186 169.529 37.246 171.36C37.3213 171.963 37.2638 172.48 37.1953 173.08C37.083 174.079 36.9433 175.321 37.498 176.804L37.6213 177.132L37.8308 177.412C37.8774 177.477 42.9548 184.5 40.2606 191.517C39.9881 192.227 39.6224 192.821 39.2348 193.451C38.3883 194.828 37.3337 196.542 37.7062 199.165C37.8802 200.394 38.9334 201.281 40.1401 201.281Z" fill="#1A1A1A"/>
<path d="M57.3745 153.01C57.3745 153.01 50.8782 153.021 52.5218 159.453C54.5462 167.375 62.2286 168.459 62.2286 168.459C62.2286 168.459 67.4949 157.646 57.3745 153.01Z" fill="white"/>
<path d="M56.9773 155.099C59.0743 156.16 60.4193 157.576 61.0795 159.42C61.9287 161.789 61.4383 164.388 60.9548 165.997C58.9661 165.274 55.657 163.426 54.5133 158.945C54.1887 157.676 54.2504 156.737 54.6982 156.15C55.2214 155.464 56.3089 155.188 56.9773 155.099ZM63.4216 170.703L64.0763 169.359C64.1914 169.121 66.8937 163.466 64.9474 158.035C63.8626 155.007 61.6027 152.687 58.2292 151.142L57.821 150.955H57.3704C56.976 150.957 53.4628 151.036 51.4576 153.623C50.5837 154.751 49.714 156.764 50.5317 159.961C52.8697 169.112 61.5725 170.442 61.941 170.494L63.4216 170.703Z" fill="#1A1A1A"/>
<path d="M91.7722 235.328C92.2899 235.328 92.8008 235.309 93.3076 235.268C100.631 234.679 105.611 229.747 106.307 222.398C107.204 212.928 108.629 212.223 112.436 210.338C115.071 209.034 118.681 207.248 123.404 202.36C141.351 183.783 130.965 153.706 130.514 152.435C130.198 151.544 129.22 151.079 128.33 151.394C127.438 151.709 126.972 152.688 127.288 153.578C127.39 153.87 137.404 182.941 120.942 199.98C116.63 204.442 113.464 206.01 110.917 207.269C106.229 209.591 103.929 211.189 102.898 222.076C102.361 227.745 98.6739 231.4 93.0336 231.854C83.2789 232.642 66.0417 223.341 58.5277 194.508C58.288 193.593 57.3526 193.046 56.439 193.282C55.5227 193.522 54.9748 194.456 55.2132 195.371C62.1423 221.957 78.533 235.328 91.7722 235.328Z" fill="#1A1A1A"/>
<path d="M201.593 4.03447C201.593 4.03447 178.687 6.49437 160.977 23.2234C139.376 43.6286 128.679 81.0889 128.679 81.0889L152.12 81.9258C152.12 81.9258 160.528 41.681 192.87 28.0049C211.963 19.9321 245.658 18.9912 281.721 51.8767C281.721 51.8767 278.079 37.5254 266.904 19.313C260.946 9.60212 255.781 10.1596 239.144 5.83282C218.859 0.556885 201.593 4.03447 201.593 4.03447Z" fill="#DC0000"/>
<path d="M144.152 54.4204C146.775 51.9893 149.557 49.7211 152.491 47.631L152.661 47.5091L152.85 47.4187C152.876 47.4064 152.902 47.3941 152.928 47.3804C155.982 45.0602 159.19 42.8933 162.541 40.8964C168.086 37.5914 173.844 34.8589 179.732 32.7154C183.368 30.0199 187.416 27.6394 191.911 25.7383C196.245 23.9071 205.257 20.8856 217.473 20.8856C232.68 20.8856 252.846 25.5657 275.117 43.0522C266.719 27.8298 251.936 15.937 235.195 9.97488C228.729 8.76958 222.752 8.3888 217.778 8.3888C209.233 8.3888 203.649 9.51332 203.649 9.51332C203.649 9.51332 180.741 11.9732 163.032 28.7023C155.37 35.9409 149.079 45.3245 144.152 54.4204Z" fill="#B50000"/>
<path d="M217.473 20.8851C205.257 20.8851 196.245 23.9066 191.911 25.7378C162.602 38.1319 152.406 70.8189 150.194 79.3943L131.995 78.7451C135.032 69.5245 145.329 41.3903 162.667 25.0119C179.529 9.08408 201.638 6.50499 201.859 6.48034C201.933 6.47212 202.008 6.46117 202.079 6.4461C202.344 6.39405 219.132 3.16985 238.525 8.21432C241.491 8.98544 244.094 9.6018 246.391 10.1469C256.896 12.6383 260.437 13.4766 264.806 20.6002C270.564 29.9837 274.299 38.3688 276.537 44.1817C253.703 25.7666 233.002 20.8851 217.473 20.8851ZM152.121 84.3867C153.281 84.3867 154.289 83.5731 154.529 82.4295C154.61 82.0405 163.084 43.2708 193.829 30.2714C203.533 26.1679 238.43 15.7297 280.062 53.6953C280.865 54.4267 282.054 54.5473 282.987 53.9871C283.918 53.4283 284.374 52.3243 284.106 51.271C283.954 50.6697 280.243 36.3472 269.001 18.0252C263.561 9.1594 258.203 7.88972 247.526 5.35722C245.254 4.81895 242.678 4.20808 239.763 3.45066C219.788 -1.74446 202.885 1.27837 201.219 1.59888C199.226 1.83035 176.943 4.75593 159.287 21.4343C137.446 42.0655 126.758 78.8574 126.314 80.4133C126.106 81.1406 126.244 81.9227 126.689 82.5349C127.134 83.1472 127.836 83.5211 128.592 83.5485L152.032 84.3853C152.062 84.3853 152.091 84.3867 152.121 84.3867Z" fill="#1A1A1A"/>
<path d="M288.338 231.74C295.962 249.268 281.147 303.64 261.975 330.168C242.802 356.695 191.61 330.366 163.544 313.18C135.478 295.994 172.362 231.412 182.589 214.311C198.562 187.606 277.041 205.767 288.338 231.74Z" fill="white"/>
<path d="M236.973 338.952C246.536 338.952 254.683 336.057 259.98 328.725C260.134 328.511 260.289 328.296 260.442 328.079C259.975 326.256 259.761 324.42 259.719 322.605C258.566 322.971 257.367 323.167 256.121 323.167C255.64 323.167 255.151 323.138 254.657 323.078C249.693 322.477 246.166 320.409 244.173 316.932C240.382 310.32 242.32 299.006 250.453 280.25C251.721 277.329 254.625 275.475 257.755 275.475C258.123 275.475 258.493 275.5 258.864 275.553L260.287 275.753C261.247 271.775 262.034 267.981 262.668 264.37L262.024 263.057C261.75 262.557 261.434 262.076 261.142 261.584L259.364 258.648C259.083 258.151 258.709 257.704 258.392 257.225L257.414 255.802C256.755 254.857 256.169 253.865 255.481 252.933C255.439 252.876 255.395 252.818 255.352 252.76C253.583 263.511 250.845 274.113 246.94 284.328C245.704 287.565 244.354 290.761 242.888 293.906C242.997 295.848 242.701 298.145 241.383 300.358H241.385C240.845 301.258 240.255 302.035 239.64 302.708C238.849 303.571 238.019 304.263 237.197 304.816C236.665 305.733 236.122 306.645 235.568 307.549C234.486 309.42 233.227 311.182 232.048 312.993C231.464 313.904 230.789 314.753 230.164 315.635C229.521 316.505 228.91 317.399 228.236 318.246C226.877 319.932 225.579 321.666 224.125 323.277C223.409 324.09 222.717 324.926 221.981 325.72L219.743 328.084C217.577 330.311 215.312 332.453 212.939 334.48C221.357 337.225 229.589 338.952 236.973 338.952Z" fill="#B9AFBE"/>
<path d="M286.082 232.721C293.225 249.143 278.589 302.978 259.98 328.725C242.273 353.226 192.764 328.186 164.829 311.081C154.006 304.453 152.729 288.784 161.035 264.509C167.226 246.419 177.321 227.912 184.701 215.573C189.891 206.896 203.672 202.616 222.509 203.831C250.956 205.663 280.068 218.894 286.082 232.721ZM237.011 343.961C248.14 343.961 257.605 340.415 263.969 331.608C273.179 318.866 282.006 298.907 287.582 278.218C293.333 256.876 294.432 239.577 290.595 230.758C283.002 213.3 249.507 200.638 222.826 198.919C201.778 197.564 186.738 202.58 180.477 213.047C172.977 225.589 162.707 244.421 156.378 262.916C147.224 289.666 149.204 307.284 162.259 315.277C186.15 329.907 214.868 343.961 237.011 343.961Z" fill="#1A1A1A"/>
<path d="M258.53 277.59L274.095 279.753C277.613 280.242 279.917 283.701 278.991 287.13C275.805 298.928 267.783 322.575 254.955 321.049C239.408 319.202 243.194 302.21 252.298 281.084C253.347 278.65 255.904 277.226 258.53 277.59Z" fill="white"/>
<path d="M256.076 319.055C256.078 319.055 256.08 319.055 256.082 319.055C257.421 319.055 258.707 318.705 259.939 318.073C260.045 317.172 260.183 316.279 260.354 315.393C260.491 314.685 260.643 313.979 260.821 313.278C260.865 313.107 260.908 312.94 260.953 312.774C260.925 312.748 260.898 312.723 260.871 312.699C260.432 312.273 260.005 311.834 259.608 311.358C259.161 310.83 258.74 310.266 258.357 309.659C250.324 305.619 251.824 294.145 257.281 279.612C255.952 279.775 254.77 280.624 254.224 281.884C249.526 292.715 243.744 307.92 247.738 314.889C249.07 317.212 251.494 318.555 255.151 318.999C255.462 319.036 255.769 319.055 256.076 319.055Z" fill="#B9AFBE"/>
<path d="M258.29 279.621L273.851 281.82C274.948 281.974 275.927 282.593 276.537 283.519C277.15 284.452 277.327 285.557 277.034 286.634C274.926 294.373 267.308 319.053 256.082 319.055C255.774 319.055 255.465 319.037 255.151 318.999C251.494 318.555 249.07 317.212 247.738 314.889C243.744 307.92 249.526 292.715 254.224 281.884C254.906 280.31 256.58 279.379 258.29 279.621ZM256.121 323.167C269.32 323.168 277.335 301.163 280.999 287.713C281.598 285.516 281.223 283.163 279.968 281.259C278.711 279.349 276.69 278.071 274.425 277.75L258.864 275.553C255.329 275.055 251.869 276.985 250.453 280.25C242.32 299.006 240.382 310.32 244.173 316.932C246.166 320.408 249.693 322.477 254.657 323.078C255.151 323.138 255.64 323.167 256.121 323.167Z" fill="#1A1A1A"/>
<path d="M289.936 234.935C288.043 234.594 286.197 234.299 284.325 234.019C282.458 233.741 280.588 233.487 278.715 233.257C274.969 232.804 271.203 232.448 267.409 232.312C266.73 232.289 266.159 232.82 266.134 233.5C266.112 234.132 266.57 234.671 267.182 234.762L267.199 234.764C270.842 235.298 274.467 236.047 278.071 236.892C279.872 237.318 281.669 237.766 283.459 238.239C285.242 238.71 287.045 239.204 288.786 239.721L288.799 239.725C290.105 240.111 291.476 239.366 291.863 238.061C292.25 236.755 291.505 235.383 290.199 234.997C290.113 234.971 290.023 234.95 289.936 234.935Z" fill="#371A45"/>
<path d="M155.033 189.076L166.896 168.334C163.322 175.772 159.291 182.693 155.033 189.076Z" fill="white"/>
<path d="M43.834 316.438C43.834 316.438 60.8891 308.981 78.6508 305.327C90.2971 302.927 102.245 302.165 109.893 306.206C109.893 306.206 165.787 360.741 218.912 287.054C235.763 263.681 242.95 244.824 243.731 229.597C243.842 227.456 243.824 225.395 243.688 223.395C243.553 221.285 243.276 219.255 242.883 217.299C241.805 211.909 239.819 207.091 237.148 202.779C235.118 199.511 232.694 196.533 229.981 193.82C204.805 168.706 154.053 166.271 154.053 166.271C152.799 169.844 151.488 173.283 150.129 176.587C147.557 182.863 144.832 188.652 142.02 193.987C141.207 195.525 140.397 197.02 139.572 198.478C129.9 215.674 119.52 227.714 111.363 235.57C102.59 244.024 96.3811 247.648 96.3811 247.648C53.6723 229.609 36.6365 265.071 36.6365 265.071C36.6365 265.071 9.32542 237.362 3.01949 266.96C-1.65106 288.857 23.863 323.95 43.834 316.438Z" fill="white"/>
<path d="M38.1966 314.998C39.369 314.98 40.525 314.804 41.6358 314.539L42.7726 314.194L42.9137 314.153L43.0383 314.098L43.3848 313.95L44.0724 313.663L46.8158 312.549C48.6457 311.823 50.4852 311.125 52.3315 310.447C56.0282 309.1 59.7564 307.843 63.5243 306.691C67.2909 305.541 71.1013 304.504 74.9569 303.613C75.6116 303.464 76.2663 303.319 76.9224 303.177C78.1017 300.702 79.548 298.387 81.1382 296.212C84.2432 292.018 87.9509 288.298 92.1955 285.239C94.3609 283.689 96.6688 282.297 99.1082 281.144C97.0098 280.748 94.9718 280.566 92.9912 280.566C71.0123 280.566 56.0487 303.019 43.5163 306.01C42.1631 306.332 40.7825 306.487 39.3882 306.487C39.2717 306.487 39.1553 306.486 39.0375 306.484C39.1909 307.962 39.2375 309.335 39.1704 310.57C39.1704 310.573 39.1704 310.575 39.1704 310.58C39.169 310.59 39.169 310.6 39.1676 310.611C39.1676 310.618 39.1676 310.622 39.1663 310.629C39.1663 310.637 39.1663 310.645 39.1649 310.653C39.1649 310.662 39.1649 310.67 39.1635 310.677C39.1635 310.684 39.1635 310.689 39.1635 310.695C39.1621 310.703 39.1621 310.714 39.1608 310.722C39.1608 310.727 39.1608 310.732 39.1608 310.736C39.1594 310.747 39.1594 310.759 39.158 310.77C39.158 310.771 39.158 310.774 39.158 310.777C39.1567 310.789 39.1567 310.8 39.1553 310.812C39.1553 310.814 39.1553 310.816 39.1553 310.818C39.1539 310.83 39.1526 310.845 39.1526 310.858C39.032 312.553 38.6965 313.915 38.1966 314.998Z" fill="#B9AFBE"/>
<path d="M136.215 202.622C134.424 204.483 132.859 206.462 131.273 208.414C129.623 210.322 128.167 212.353 126.564 214.272C125.777 215.242 125.022 216.234 124.251 217.213C123.473 218.187 122.654 219.126 121.876 220.097C120.321 222.044 118.657 223.891 117.058 225.796C113.762 229.516 110.374 233.165 106.7 236.5C105.783 237.335 104.872 238.175 103.921 238.967L102.504 240.166L101.053 241.316C100.092 242.089 99.0972 242.815 98.1069 243.534C97.6084 243.883 97.1126 244.247 96.6085 244.576C96.1182 244.909 95.5799 245.257 95.1443 245.521L97.3413 245.38C91.8887 243.075 86.1237 241.339 80.1493 240.546C74.194 239.723 67.9867 239.974 62.0835 241.565C56.1597 243.104 50.6523 246.085 45.9708 249.944C43.6259 251.873 41.4783 254.028 39.5553 256.365C38.5828 257.523 37.6802 258.741 36.8242 259.994C36.3941 260.62 35.9818 261.26 35.586 261.916C35.3846 262.242 35.1929 262.577 35.0011 262.914C34.8053 263.266 34.6327 263.576 34.4204 264.006L38.391 263.343C36.8789 261.851 35.397 260.569 33.8123 259.285C32.2331 258.021 30.5936 256.822 28.8691 255.715C27.1447 254.61 25.3341 253.598 23.3919 252.758C21.4511 251.924 19.3733 251.245 17.1161 250.97C14.8794 250.69 12.3948 250.874 10.1267 251.857C7.85031 252.821 6.00266 254.532 4.69873 256.376L4.1947 257.069L3.77832 257.79C3.51535 258.275 3.20032 258.751 2.98665 259.245C2.55521 260.234 2.08267 261.221 1.78683 262.227L1.291 263.729L0.911591 265.239C0.795166 265.748 0.6418 266.232 0.558243 266.763L0.292542 268.346C-0.293671 272.583 0.099411 276.785 0.932159 280.803C1.82108 284.818 3.2003 288.668 4.92197 292.339C6.64226 296.011 8.72417 299.499 11.1348 302.758C13.5426 306.015 16.2642 309.064 19.3582 311.763C20.9374 313.078 22.5468 314.371 24.3301 315.463C25.1889 316.048 26.1326 316.524 27.0502 317.034C27.5118 317.283 28.0076 317.483 28.4856 317.709C28.9678 317.93 29.4458 318.156 29.958 318.324L31.4688 318.868L33.0384 319.288C33.5561 319.443 34.0971 319.531 34.6395 319.614C35.1833 319.685 35.7134 319.821 36.2694 319.835C38.4732 320.062 40.7236 319.833 42.915 319.292L44.5669 318.779L44.7737 318.71L44.9832 318.62L45.3078 318.482L45.9667 318.205L48.6306 317.124C50.4167 316.416 52.215 315.733 54.0216 315.07C57.6375 313.753 61.2849 312.522 64.9584 311.4C68.6332 310.277 72.3381 309.271 76.0636 308.41C79.7877 307.55 83.5406 306.835 87.3058 306.472C91.0696 306.118 94.8033 305.924 98.4822 305.934C102.193 305.949 105.706 306.246 109.507 306.931L109.583 306.945C110.039 307.027 110.475 306.724 110.557 306.27C110.612 305.964 110.493 305.668 110.274 305.481C109.486 304.814 108.642 304.119 107.716 303.64C107.254 303.396 106.789 303.126 106.314 302.902L104.853 302.322C103.872 301.915 102.862 301.715 101.849 301.439C101.342 301.342 100.834 301.25 100.323 301.169C99.8135 301.087 99.2985 300.991 98.7904 300.962C94.6965 300.521 90.6313 300.805 86.6771 301.4C82.7188 301.998 78.8152 302.73 74.9569 303.614C71.1013 304.504 67.2909 305.541 63.5243 306.691C59.7564 307.843 56.0282 309.101 52.3315 310.447C50.4852 311.125 48.6457 311.824 46.8158 312.55L44.0724 313.663L43.3848 313.951L43.0383 314.099L42.9137 314.153L42.7726 314.194L41.6358 314.54C40.0593 314.915 38.3869 315.114 36.7105 314.933C36.2914 314.931 35.8722 314.811 35.4531 314.76C35.0326 314.697 34.6135 314.634 34.1985 314.504L32.9466 314.174L31.7139 313.727C31.2989 313.595 30.899 313.401 30.4963 313.217C30.0964 313.025 29.6841 312.867 29.2924 312.652C28.5117 312.213 27.7104 311.818 26.9612 311.303C25.4203 310.366 23.9891 309.212 22.5797 308.042C19.8075 305.623 17.3133 302.836 15.0986 299.839C12.8797 296.844 10.954 293.617 9.37474 290.24C7.79279 286.87 6.53816 283.35 5.7424 279.763C5.00003 276.181 4.68091 272.513 5.16714 269.027L5.38356 267.733C5.44656 267.303 5.59175 266.855 5.69174 266.417L6.02045 265.093L6.44093 263.828C6.69022 262.961 7.0751 262.195 7.41341 261.398C7.58188 260.998 7.82156 260.665 8.01743 260.293L8.32422 259.748L8.68443 259.264C9.61717 257.948 10.7554 256.936 12.0771 256.377C13.3947 255.807 14.9205 255.659 16.5312 255.856C19.7732 256.265 23.1316 257.888 26.2147 259.861C27.7666 260.856 29.2718 261.954 30.7305 263.123C32.1701 264.284 33.6287 265.558 34.8861 266.799L37.3131 269.194L38.8567 266.137C39.1005 265.655 39.4553 265.02 39.7977 264.463C40.1442 263.89 40.5099 263.32 40.8948 262.761C41.6604 261.642 42.4713 260.545 43.3478 259.501C45.0791 257.397 47.0103 255.462 49.1045 253.738C53.2902 250.296 58.1375 247.673 63.36 246.318C68.5674 244.917 74.0831 244.676 79.5055 245.426C84.9376 246.147 90.2903 247.741 95.4251 249.914L96.5784 250.401L97.6234 249.772C98.2699 249.382 98.7931 249.04 99.3506 248.663C99.9081 248.299 100.431 247.914 100.97 247.538C102.027 246.77 103.079 246 104.09 245.19L105.615 243.98L107.104 242.735C108.111 241.919 109.071 241.056 110.039 240.201C113.88 236.747 117.562 233.13 121.023 229.31C122.696 227.354 124.417 225.431 125.954 223.365C126.74 222.348 127.54 221.338 128.282 220.288C129.015 219.232 129.764 218.187 130.48 217.12C131.218 216.068 131.905 214.982 132.537 213.86C133.189 212.752 133.836 211.642 134.444 210.511C135.641 208.235 136.701 205.882 137.622 203.467C137.785 203.037 137.57 202.556 137.14 202.393C136.818 202.27 136.468 202.36 136.244 202.593L136.215 202.622Z" fill="#1A1A1A"/>
<path d="M44.7449 355.119C47.5198 370.155 65.22 382.774 83.8487 378.226C96.1606 375.224 104.842 367.17 110.249 359.997C116.567 351.605 121.52 342.708 130.558 340.009C134.907 338.71 139.85 341.58 146.763 344.449C156.233 348.381 169.398 352.312 189.787 345.527C200.788 341.873 214.668 332.133 226.83 316.045C230.756 310.858 234.496 305.014 237.906 298.491C245.276 284.408 251.09 267.188 253.796 246.737C254.966 237.866 255.55 228.378 255.421 218.283C255.366 213.594 255.15 208.777 254.769 203.824C254.258 197.173 253.453 190.277 252.308 183.14L240.994 197.802L237.148 202.779L234.38 206.36L217.068 228.791L190.606 263.072L159.714 303.088L157.574 305.862C155.722 303.051 153.636 300.405 151.354 297.963C144.395 290.531 135.585 284.969 125.734 282.176C125.526 282.114 125.322 282.058 125.114 282.003C120.493 280.754 115.584 280.078 110.698 280.508C96.7688 281.739 83.683 293.736 78.6509 305.327C77.2292 308.587 76.4485 311.811 76.4663 314.759C76.5033 320.043 76.4484 325.845 76.4484 325.845C72.3696 326.965 41.5769 337.947 44.7449 355.119Z" fill="white"/>
<path d="M159.714 303.088L164.003 297.533C162.643 297.263 161.322 296.788 160.081 296.112C159.851 295.989 159.625 295.858 159.399 295.718H159.401H159.399L125.421 274.777C124.495 276.737 123.833 278.132 123.48 278.874C125.639 279.357 127.748 280.002 129.817 280.756C131.049 281.169 132.233 281.702 133.429 282.202C134.595 282.769 135.781 283.294 136.91 283.931C144.297 287.871 150.724 293.581 155.323 300.41L159.136 302.762C159.327 302.879 159.517 302.99 159.714 303.088ZM123.479 278.874C123.829 278.13 124.492 276.737 125.419 274.776L113.455 267.403C111.031 265.909 109.22 263.791 108.104 261.382C106.733 266.254 108.684 271.669 113.19 274.449L119.126 278.105C120.198 278.244 121.263 278.421 122.317 278.63C122.706 278.705 123.092 278.788 123.479 278.874ZM107.114 252.475C107.441 250.971 108.023 249.496 108.877 248.114L109.353 247.34C108.075 246.254 107.04 244.919 106.303 243.405L106.269 243.432C105.094 246.475 105.473 249.819 107.114 252.475Z" fill="#B9AFBE"/>
<path d="M106.269 243.432L106.303 243.405C106.299 243.395 106.295 243.387 106.291 243.379C106.284 243.397 106.277 243.415 106.269 243.432Z" fill="#371A45"/>
<path d="M76.0745 376.696C77.9921 376.696 79.9096 376.513 81.797 376.154L83.2351 375.844L84.6788 375.448L85.4006 375.252L86.1087 375.013L87.5263 374.535C95.0361 371.78 101.621 366.691 106.766 360.426C109.319 357.31 111.679 353.745 114.279 350.301C116.87 346.855 119.778 343.343 123.663 340.658C125.615 339.323 127.74 338.263 130.127 337.585C131.005 337.329 131.894 337.239 132.757 337.239C133.242 337.239 133.717 337.268 134.177 337.311C135.477 337.433 136.634 337.761 137.757 338.098C139.969 338.811 141.955 339.696 143.907 340.542C145.853 341.396 147.754 342.226 149.673 342.967C153.503 344.45 157.4 345.592 161.395 346.184C163.833 346.562 166.298 346.742 168.771 346.742C170.343 346.742 171.918 346.669 173.492 346.529C177.538 346.177 181.565 345.386 185.515 344.262C186.504 343.986 187.481 343.658 188.466 343.36C189.452 343.06 190.358 342.674 191.308 342.338C192.244 341.972 193.157 341.529 194.083 341.13C195.001 340.703 195.893 340.207 196.799 339.751C203.959 335.839 210.453 330.585 216.212 324.654L218.347 322.4C219.051 321.641 219.712 320.841 220.397 320.065C221.787 318.526 223.03 316.861 224.334 315.248C224.979 314.437 225.564 313.577 226.183 312.744C226.781 311.896 227.43 311.082 227.989 310.207C228.681 309.143 229.403 308.099 230.096 307.036C227.117 306.987 217.725 306.297 203.743 300.273C203.738 300.27 203.733 300.269 203.727 300.266H203.726C197.084 297.404 189.407 293.337 180.892 287.564L178.69 291.139C178.12 292.063 177.46 292.897 176.727 293.638C176.071 294.304 175.352 294.898 174.578 295.416C172.252 296.975 169.51 297.799 166.732 297.799C166.474 297.799 166.215 297.791 165.957 297.777C165.3 297.742 164.646 297.66 164.003 297.532L159.714 303.088C161.45 304.027 163.338 304.478 165.208 304.478C169.112 304.478 172.934 302.517 175.126 298.965L177.39 295.292C191.264 304.982 203.009 310.174 211.826 312.956C203.027 321.316 194.1 326.706 186.532 329.222C178.494 331.899 171.576 332.908 165.567 332.908C156.335 332.908 149.245 330.526 143.51 328.146C137.775 325.764 133.395 323.383 129.587 323.383C128.807 323.383 128.049 323.483 127.309 323.704C118.266 326.405 113.313 335.301 106.995 343.693C101.587 350.867 92.9063 358.921 80.5944 361.923C77.9688 362.564 75.361 362.864 72.8107 362.864C62.4218 362.864 52.9889 357.886 47.1665 350.727C47.0295 351.492 46.972 352.264 47.0007 353.038C47.0665 354.702 47.5568 356.667 48.2225 358.433C49.5894 362.016 51.8562 365.291 54.6681 368.011C57.4814 370.734 60.8439 372.914 64.4804 374.402C68.1168 375.892 72.0327 376.684 75.9499 376.696C75.9924 376.696 76.0334 376.696 76.0745 376.696ZM234.447 289.736C236.144 289.736 237.84 289.628 239.533 289.394C240.528 287.146 241.465 284.871 242.342 282.573C246.718 271.125 249.593 259.135 251.246 246.96C250.282 245.613 249.334 244.242 248.466 242.776C244.642 261.377 238.174 276.935 230.497 289.546C231.809 289.67 233.128 289.736 234.447 289.736ZM191.384 271.916C191.603 271.222 191.752 270.517 191.836 269.808L190.811 271.469C190.995 271.614 191.186 271.762 191.384 271.916Z" fill="#B9AFBE"/>
<path d="M158.258 305.412C153.697 296.37 146.037 288.8 136.909 283.93C135.781 283.294 134.595 282.769 133.429 282.202C132.233 281.702 131.049 281.169 129.817 280.756C127.377 279.867 124.882 279.131 122.317 278.63C119.754 278.12 117.132 277.805 114.478 277.755C113.151 277.733 111.817 277.77 110.486 277.896C109.813 277.981 109.138 278.055 108.471 278.16C107.81 278.29 107.14 278.389 106.488 278.552C101.235 279.769 96.44 282.201 92.1954 285.24C87.9509 288.298 84.2432 292.018 81.1382 296.212C78.0646 300.417 75.5253 305.145 74.4268 310.54C74.1679 311.891 74.0214 313.284 74.0105 314.707L74.0009 318.416L73.9844 325.82L75.7938 323.471C74.6268 323.807 73.6269 324.16 72.5846 324.538C71.5546 324.911 70.5411 325.313 69.5316 325.723C67.5169 326.553 65.5322 327.45 63.5777 328.424C59.6769 330.381 55.8693 332.6 52.3533 335.376C50.6002 336.765 48.9182 338.292 47.3938 340.029C45.8762 341.766 44.5079 343.726 43.5245 345.958C42.5384 348.18 41.9823 350.701 42.0822 353.215C42.2083 355.788 42.8136 357.977 43.6204 360.177C45.2804 364.527 47.9704 368.378 51.2453 371.548C54.5256 374.72 58.4059 377.233 62.6162 378.956C66.8224 380.682 71.3711 381.604 75.9321 381.619C78.2112 381.628 80.4917 381.413 82.7297 380.987L84.3979 380.626L86.0224 380.183L86.8346 379.96L87.6331 379.693L89.2274 379.153C91.3257 378.358 93.3747 377.439 95.3402 376.366C97.2933 375.275 99.1835 374.076 100.972 372.746C104.54 370.075 107.756 366.976 110.563 363.558C113.38 360.108 115.697 356.583 118.211 353.261C120.69 349.947 123.324 346.864 126.444 344.719C126.834 344.454 127.219 344.179 127.633 343.965C128.041 343.745 128.434 343.483 128.863 343.312C129.289 343.135 129.691 342.897 130.134 342.764L130.786 342.537C130.99 342.473 131.249 342.353 131.403 342.338C132.75 341.96 134.451 342.212 136.277 342.792C138.101 343.378 140.001 344.209 141.936 345.053C143.873 345.901 145.857 346.769 147.894 347.555C151.966 349.136 156.256 350.399 160.654 351.051C162.848 351.41 165.07 351.56 167.286 351.647C168.394 351.649 169.505 351.694 170.61 351.631L172.269 351.568L173.92 351.431C178.324 351.048 182.653 350.193 186.857 348.998C187.909 348.703 188.943 348.359 189.988 348.042C191.029 347.724 192.082 347.286 193.129 346.912C194.167 346.505 195.164 346.024 196.183 345.582C197.187 345.113 198.151 344.582 199.136 344.083C206.87 339.854 213.698 334.304 219.742 328.084L221.98 325.72C222.717 324.926 223.409 324.09 224.125 323.277C225.579 321.666 226.877 319.932 228.236 318.246C228.91 317.399 229.52 316.505 230.164 315.635C230.789 314.753 231.464 313.904 232.048 312.993C233.227 311.183 234.486 309.42 235.568 307.549C240.082 300.179 243.868 292.381 246.94 284.328C253.102 268.205 256.362 251.119 257.488 233.999L257.825 227.57C257.903 226.498 257.874 225.425 257.904 224.353L257.971 221.136C257.983 220.063 258.037 218.989 258.015 217.917L257.945 214.701L257.852 211.485L257.796 209.877L257.667 208.273C257.501 206.136 257.3 204.001 257.093 201.87C257.012 200.802 256.799 199.746 256.658 198.685C256.503 197.625 256.344 196.565 256.155 195.511C255.967 194.456 255.807 193.399 255.593 192.348C255.362 191.302 255.13 190.255 254.861 189.214C254.35 187.131 253.781 185.06 253.117 183.014C252.975 182.577 252.508 182.338 252.071 182.481C251.725 182.593 251.504 182.911 251.497 183.255V183.273C251.356 191.848 252.134 200.181 252.439 208.57C252.591 210.662 252.577 212.757 252.679 214.85L252.805 217.991C252.854 219.037 252.828 220.084 252.844 221.131C252.846 223.224 252.899 225.321 252.831 227.414L252.576 233.69C251.476 250.386 248.301 266.984 242.342 282.573C239.37 290.361 235.717 297.882 231.374 304.974C230.334 306.775 229.122 308.465 227.989 310.207C227.43 311.083 226.781 311.896 226.183 312.744C225.564 313.577 224.979 314.437 224.334 315.248C223.03 316.861 221.787 318.527 220.397 320.065C219.712 320.841 219.051 321.641 218.347 322.4L216.211 324.655C210.453 330.585 203.958 335.839 196.799 339.751C195.893 340.207 195.001 340.703 194.083 341.13C193.157 341.529 192.244 341.973 191.308 342.338C190.358 342.674 189.452 343.06 188.466 343.36C187.481 343.659 186.504 343.986 185.515 344.263C181.564 345.386 177.538 346.177 173.492 346.529C169.446 346.89 165.383 346.803 161.395 346.184C157.4 345.593 153.503 344.45 149.673 342.967C147.754 342.226 145.853 341.396 143.907 340.543C141.955 339.696 139.969 338.811 137.757 338.098C136.634 337.761 135.477 337.434 134.177 337.312C132.896 337.19 131.497 337.187 130.127 337.586C127.74 338.264 125.615 339.324 123.663 340.658C119.778 343.344 116.87 346.855 114.279 350.302C111.679 353.745 109.319 357.31 106.766 360.426C101.621 366.691 95.0361 371.781 87.5263 374.535L86.1087 375.013L85.4005 375.253L84.6787 375.449L83.2351 375.844L81.797 376.154C79.8685 376.521 77.9099 376.704 75.9499 376.696C72.0327 376.684 68.1168 375.892 64.4803 374.402C60.8439 372.915 57.4814 370.734 54.6681 368.011C51.8562 365.291 49.5894 362.016 48.2225 358.433C47.5568 356.668 47.0664 354.702 47.0007 353.038C46.9363 351.311 47.3034 349.587 48.0307 347.937C49.4962 344.623 52.2835 341.711 55.4036 339.239C58.547 336.754 62.0999 334.67 65.7733 332.829C67.6141 331.911 69.4947 331.062 71.3999 330.277C72.3531 329.889 73.3119 329.509 74.2748 329.161C75.224 328.814 76.2279 328.466 77.0976 328.217L78.9029 327.699L78.907 325.867L78.922 318.412L78.9316 314.693C78.944 313.637 79.0522 312.559 79.259 311.477C80.1315 307.13 82.338 302.887 85.102 299.13C87.8755 295.353 91.2819 292.002 95.1005 289.305C98.9095 286.603 103.175 284.562 107.607 283.615C111.98 282.679 116.711 282.894 121.279 283.815C123.57 284.291 125.858 284.899 128.081 285.673C129.205 286.027 130.287 286.501 131.394 286.911C132.469 287.397 133.569 287.835 134.615 288.385C143.119 292.578 150.546 298.821 156.887 306.315L156.89 306.318C157.185 306.665 157.706 306.709 158.054 306.415C158.351 306.163 158.425 305.745 158.258 305.412Z" fill="#1A1A1A"/>
<path d="M127.07 343.294C127.66 343.294 128.238 343.012 128.596 342.489C139.079 327.143 135.062 308.091 126.43 296.016C118.648 285.127 107.407 280.132 97.0974 282.982C96.1154 283.255 95.5388 284.271 95.81 285.253C96.0825 286.237 97.0988 286.812 98.0809 286.541C106.991 284.077 116.466 288.424 123.428 298.164C131.057 308.836 134.974 326.607 125.548 340.407C124.973 341.249 125.189 342.397 126.032 342.972C126.349 343.19 126.712 343.294 127.07 343.294Z" fill="#1A1A1A"/>
<path d="M74.5473 326.629C75.1856 327.904 75.8389 329.008 76.5457 330.15C77.2469 331.276 77.9879 332.374 78.7686 333.444C80.33 335.579 82.0448 337.608 83.972 339.424C85.8922 341.239 88.0344 342.855 90.4149 344.001C91.6051 344.566 92.8405 345.037 94.1198 345.315C95.3963 345.592 96.6961 345.705 97.9795 345.657C96.6989 345.534 95.4511 345.251 94.2636 344.822C93.0761 344.392 91.9667 343.786 90.9202 343.107C89.8711 342.429 88.9068 341.628 88.0029 340.772C87.0975 339.917 86.2552 338.997 85.4758 338.024C83.9062 336.09 82.5585 333.98 81.3696 331.792C80.7752 330.698 80.2232 329.58 79.7123 328.449C79.2096 327.331 78.7138 326.141 78.3454 325.06L78.3371 325.038C77.9701 323.962 76.799 323.388 75.7225 323.755C74.6459 324.123 74.0707 325.295 74.4391 326.371C74.4679 326.456 74.5076 326.549 74.5473 326.629Z" fill="#1A1A1A"/>
<path d="M68.9632 309.518C69.4632 309.518 69.9603 309.316 70.3233 308.92C81.6929 296.529 86.9976 283.827 86.0909 271.164C84.7924 253.027 71.2533 241.758 70.6767 241.288C69.8878 240.644 68.7249 240.759 68.0798 241.548C67.4347 242.337 67.5511 243.499 68.3387 244.144C68.4674 244.25 81.2491 254.932 82.4119 271.47C83.2283 283.065 78.2468 294.825 67.6045 306.424C66.9156 307.175 66.9649 308.342 67.7155 309.031C68.0702 309.357 68.5181 309.518 68.9632 309.518Z" fill="#1A1A1A"/>
<path d="M108.327 233.182C105.659 238.15 107.523 244.339 112.49 247.007C117.457 249.675 123.647 247.811 126.315 242.844C128.983 237.876 127.119 231.686 122.151 229.018C117.185 226.35 110.994 228.214 108.327 233.182Z" fill="white"/>
<path d="M111.549 243.778L114.978 238.213C113.127 236.697 111.91 234.607 111.452 232.351C110.943 232.877 110.5 233.479 110.137 234.155C109.105 236.073 108.885 238.279 109.512 240.365C109.907 241.674 110.606 242.838 111.549 243.778Z" fill="#B9AFBE"/>
<path d="M117.334 229.859C118.635 229.859 119.954 230.171 121.18 230.829C125.141 232.956 126.633 237.91 124.506 241.871C123.474 243.79 121.758 245.194 119.672 245.821C117.586 246.45 115.381 246.228 113.462 245.196C111.543 244.166 110.141 242.45 109.512 240.364C108.885 238.278 109.105 236.073 110.137 234.154C111.606 231.418 114.426 229.859 117.334 229.859ZM117.305 250.282C118.493 250.282 119.687 250.108 120.857 249.756C123.994 248.811 126.575 246.702 128.126 243.816C131.325 237.858 129.08 230.408 123.124 227.209C120.238 225.658 116.922 225.327 113.784 226.269C110.648 227.214 108.067 229.323 106.517 232.209C104.966 235.095 104.633 238.412 105.578 241.549C106.524 244.686 108.633 247.267 111.519 248.816C113.328 249.789 115.307 250.282 117.305 250.282Z" fill="#1A1A1A"/>
<path d="M114.713 265.361L160.662 293.677C166.098 297.03 173.296 295.325 176.653 289.881L191.719 265.428C194.657 260.662 193.711 254.553 189.776 250.856C189.221 250.328 188.601 249.856 187.923 249.437L141.981 221.124C136.537 217.767 129.339 219.473 125.991 224.922L114.051 244.286L110.916 249.37C107.559 254.815 109.275 262.008 114.713 265.361Z" fill="white"/>
<path d="M155.064 285.581C155.785 285.581 156.512 285.496 157.232 285.325C159.639 284.754 161.673 283.289 162.958 281.201L173.831 263.555C171.929 265.715 170.014 267.631 168.001 269.198C166.512 271.187 164.564 272.696 162.408 273.507C161.254 273.941 160.098 274.158 158.979 274.158C157.997 274.158 157.042 273.991 156.145 273.659C156.048 273.661 155.95 273.661 155.853 273.661C149.691 273.661 142.15 270.754 132.113 263.611C123.526 257.501 118.531 251.208 115.473 246.547L112.957 250.628C110.642 254.385 111.352 259.167 114.407 262.11L127.564 270.221C127.593 270.16 127.622 270.097 127.651 270.035C127.622 270.097 127.593 270.16 127.564 270.221L150.27 284.218C151.729 285.118 153.38 285.581 155.064 285.581Z" fill="#B9AFBE"/>
<path d="M135.897 221.792C137.548 221.792 139.217 222.233 140.721 223.162L186.666 251.477C190.996 254.145 192.348 259.84 189.68 264.17L174.608 288.625C171.94 292.954 166.246 294.308 161.915 291.638L115.97 263.323C111.64 260.654 110.289 254.96 112.957 250.629L128.028 226.175C129.769 223.35 132.799 221.792 135.897 221.792ZM166.732 297.8C171.44 297.8 176.043 295.434 178.69 291.14L193.76 266.686C197.815 260.104 195.762 251.451 189.181 247.395L143.237 219.08C136.656 215.025 128.002 217.079 123.947 223.659L108.876 248.114C104.821 254.696 106.874 263.348 113.455 267.403L159.399 295.718L160.658 293.679L159.399 295.718C161.687 297.129 164.225 297.8 166.732 297.8Z" fill="#1A1A1A"/>
<path d="M112.98 264.043C113.499 264.535 114.074 264.972 114.713 265.361L160.662 293.677C164.648 296.131 169.573 295.877 173.247 293.41C174.583 292.517 175.753 291.331 176.646 289.876L183.344 279.016L185.554 275.432L191.719 265.428C195.076 259.983 193.36 252.79 187.922 249.437L177.992 243.32C182.037 247.003 183.036 253.184 180.072 258.001L171.936 271.212L165 282.461C161.647 287.898 154.447 289.612 149.009 286.259L112.98 264.043Z" fill="white"/>
<path d="M166.713 293.002C167.434 293.002 168.161 292.918 168.881 292.747C171.289 292.174 173.322 290.71 174.607 288.624L176.954 284.814C176.656 284.6 176.356 284.382 176.056 284.165C176.056 284.165 175.463 281.127 176.172 277.761C175.876 277.667 175.583 277.549 175.293 277.408C174.149 276.853 173.336 275.781 172.773 274.411L167.039 283.714C165.198 286.708 162.35 288.858 158.973 289.824L161.919 291.639C163.38 292.54 165.029 293.002 166.713 293.002Z" fill="#B9AFBE"/>
<path d="M184.035 249.854L186.665 251.474C190.996 254.146 192.348 259.841 189.678 264.168L174.607 288.625C173.322 290.711 171.289 292.175 168.882 292.747C166.475 293.318 164.003 292.925 161.92 291.639L158.973 289.824C162.35 288.859 165.199 286.708 167.039 283.714L182.11 259.262C183.894 256.366 184.508 253.031 184.035 249.854ZM166.704 297.799C167.797 297.799 168.898 297.67 169.99 297.411C173.642 296.543 176.732 294.316 178.688 291.138L193.759 266.684C197.816 260.108 195.762 251.455 189.181 247.394L179.255 241.278L176.383 245.09C179.658 248.077 180.351 252.979 178.028 256.747L162.958 281.201C161.673 283.29 159.639 284.754 157.233 285.325C154.826 285.896 152.354 285.503 150.271 284.218L114.235 262.004L111.342 265.799C111.993 266.405 112.708 266.946 113.466 267.409L159.403 295.719C161.628 297.093 164.141 297.799 166.704 297.799Z" fill="#1A1A1A"/>
<path d="M154.296 259.264C153.744 260.172 150.564 268.274 150.564 268.274C150.564 268.274 152.884 269.684 155.733 271.418C159.293 273.584 164.421 271.654 167.187 267.108C169.954 262.561 169.31 257.119 165.75 254.954C163.348 253.492 160.58 251.808 160.58 251.808C160.58 251.808 155.196 257.786 154.296 259.264Z" fill="#22A7F0"/>
<path d="M158.99 270.461C159.668 270.461 160.383 270.326 161.107 270.053C162.886 269.383 164.486 267.996 165.611 266.148C167.843 262.479 167.475 258.163 164.792 256.53L163.415 255.693C164.112 258.168 163.681 261.227 162.017 263.962C161.85 264.239 161.673 264.505 161.488 264.761C159.847 267.045 157.583 268.538 155.319 269.007L156.693 269.842C157.369 270.254 158.152 270.461 158.99 270.461Z" fill="#B50000"/>
<path d="M160.933 254.182L164.792 256.53C167.475 258.163 167.843 262.478 165.611 266.148C164.486 267.995 162.886 269.383 161.107 270.053C159.487 270.662 157.919 270.588 156.693 269.842L152.851 267.504C154.196 264.112 155.577 260.748 155.877 260.217C156.385 259.388 158.93 256.438 160.933 254.182ZM158.979 274.157C160.098 274.157 161.254 273.941 162.408 273.507C164.956 272.548 167.213 270.617 168.764 268.067C172.055 262.658 171.133 256.067 166.709 253.377L160.233 249.436L159.209 250.573C158.29 251.592 153.662 256.757 152.719 258.305C152.147 259.247 149.819 265.118 148.845 267.598L148.278 269.043L154.774 272.995C156.045 273.768 157.478 274.157 158.979 274.157Z" fill="#1A1A1A"/>
<path d="M149.127 256.12C146.36 260.667 147.004 266.107 150.564 268.274C154.123 270.439 159.251 268.509 162.017 263.962C164.783 259.416 164.14 253.975 160.58 251.808C157.02 249.642 151.892 251.572 149.127 256.12Z" fill="#DC0000"/>
<path d="M155.319 269.006C157.583 268.538 159.847 267.045 161.488 264.76C159.844 267.045 157.58 268.538 155.316 269.005L155.319 269.006Z" fill="#2E568D"/>
<path d="M149.08 267.002V267.001C147.276 264.856 146.9 261.469 148.111 258.211C146.897 261.47 147.274 264.857 149.08 267.002Z" fill="#B9AFBE"/>
<path d="M153.814 269.164C154.311 269.164 154.815 269.11 155.319 269.006L155.316 269.005C154.814 269.109 154.312 269.161 153.817 269.161C152.667 269.161 151.554 268.876 150.564 268.274C149.994 267.927 149.499 267.497 149.08 267V267.001C149.498 267.498 149.994 267.93 150.564 268.276C151.554 268.879 152.666 269.164 153.814 269.164Z" fill="#371A45"/>
<path d="M153.816 269.161C154.312 269.161 154.814 269.109 155.316 269.005C157.58 268.538 159.844 267.045 161.488 264.761C161.673 264.505 161.848 264.239 162.015 263.964C162.632 262.946 163.082 261.888 163.364 260.828C161.413 263.064 158.834 264.326 156.416 264.326C155.267 264.326 154.153 264.04 153.163 263.438C150.395 261.76 149.391 258.1 150.376 254.42C149.921 254.935 149.499 255.503 149.128 256.118C148.713 256.8 148.373 257.503 148.11 258.211C146.9 261.468 147.276 264.855 149.08 267C149.499 267.497 149.994 267.927 150.564 268.274C151.554 268.876 152.667 269.161 153.816 269.161Z" fill="#B50000"/>
<path d="M162.015 263.963C161.829 264.274 161.629 264.57 161.415 264.852C162.875 260.859 161.948 256.686 158.94 254.859C155.622 252.844 150.938 254.38 148.086 258.289C148.353 257.549 148.701 256.826 149.128 256.118C151.891 251.572 157.022 249.641 160.581 251.805C164.137 253.976 164.782 259.413 162.015 263.963Z" fill="white"/>
<path d="M157.323 252.765C158.161 252.765 158.943 252.972 159.621 253.385C162.306 255.018 162.673 259.332 160.44 263.003C158.208 266.672 154.208 268.33 151.522 266.696C150.296 265.951 149.509 264.592 149.305 262.873C149.082 260.984 149.579 258.927 150.703 257.079C151.828 255.23 153.426 253.843 155.205 253.174C155.93 252.9 156.645 252.765 157.323 252.765ZM153.786 270.996C157.405 270.996 161.254 268.767 163.595 264.922C166.884 259.512 165.963 252.922 161.54 250.231C159.323 248.882 156.611 248.701 153.906 249.719C151.358 250.677 149.101 252.61 147.549 255.16C145.998 257.709 145.319 260.602 145.64 263.306C145.979 266.176 147.387 268.501 149.603 269.85C150.881 270.628 152.315 270.996 153.786 270.996Z" fill="#1A1A1A"/>
<path d="M129.104 275.699C129.693 275.699 130.265 275.395 130.584 274.85L139.699 259.245C140.576 257.746 140.64 255.921 139.875 254.363L136.711 247.932C136.446 247.395 136.475 246.769 136.786 246.258L149.366 225.689C149.86 224.882 149.606 223.827 148.798 223.334C147.991 222.841 146.938 223.096 146.445 223.903L133.866 244.472C132.937 245.99 132.852 247.849 133.637 249.444L136.801 255.875C137.06 256.399 137.038 257.013 136.744 257.517L127.627 273.123C127.151 273.941 127.426 274.988 128.242 275.465C128.513 275.624 128.811 275.699 129.104 275.699Z" fill="#1A1A1A"/>
<path d="M241.719 289.022C241.719 289.022 244.651 295.029 241.309 300.482C237.447 306.785 231.111 307.027 231.111 307.027C231.111 307.027 209.28 308.361 176.057 284.164C176.057 284.164 173.175 269.403 187.71 268.914C187.71 268.914 216.006 294.266 241.719 289.022Z" fill="white"/>
<path d="M239.64 302.709C240.255 302.035 240.845 301.259 241.385 300.359H241.383C241.36 300.4 241.335 300.441 241.309 300.482C240.79 301.328 240.226 302.067 239.64 302.709Z" fill="#8C7B94"/>
<path d="M203.743 300.273C203.738 300.27 203.732 300.269 203.727 300.266C203.732 300.269 203.738 300.27 203.743 300.273ZM203.726 300.266C197.084 297.404 189.407 293.336 180.892 287.564C189.407 293.337 197.084 297.404 203.726 300.266Z" fill="#8C7B94"/>
<path d="M180.892 287.564L180.89 287.562V287.564H180.892Z" fill="#371A45"/>
<path d="M176.172 277.761C176.83 274.643 178.605 271.242 183.007 269.719C183.008 269.717 183.008 269.717 183.008 269.716C178.605 271.239 176.83 274.641 176.172 277.761Z" fill="#B9AFBE"/>
<path d="M176.954 284.813V284.812C176.656 284.598 176.357 284.382 176.057 284.163C176.057 284.163 175.464 281.126 176.172 277.761C175.463 281.126 176.056 284.164 176.056 284.164C176.356 284.382 176.656 284.6 176.954 284.813Z" fill="#8C7B94"/>
<path d="M180.891 287.564V287.563C179.596 286.687 178.287 285.772 176.954 284.813V284.814C178.286 285.773 179.596 286.686 180.891 287.564Z" fill="#371A45"/>
<path d="M230.474 307.039C230.893 307.039 231.108 307.027 231.108 307.027C231.108 307.027 235.857 306.843 239.64 302.708C240.226 302.066 240.79 301.328 241.309 300.481C241.335 300.44 241.36 300.399 241.383 300.358V300.356C239.042 301.454 237.15 301.525 237.15 301.525C237.15 301.525 236.935 301.538 236.517 301.538C232.902 301.538 214.067 300.565 186.549 281.803C182.685 279.168 181.125 274.145 182.953 269.842C182.971 269.801 182.989 269.76 183.007 269.719C178.605 271.242 176.83 274.642 176.172 277.761C175.464 281.126 176.057 284.163 176.057 284.163C176.357 284.382 176.656 284.599 176.954 284.812C178.287 285.771 179.596 286.686 180.891 287.562L180.892 287.564C189.407 293.336 197.084 297.403 203.726 300.266H203.727C203.733 300.269 203.738 300.27 203.744 300.273C218.388 306.583 227.996 307.039 230.474 307.039Z" fill="#B9AFBE"/>
<path d="M237.243 292.046C238.136 292.046 238.989 292.395 239.611 293.024C240.24 293.659 240.549 294.493 240.485 295.375C240.381 296.782 239.971 298.079 239.266 299.228C236.161 304.295 231.209 304.622 231.001 304.633C230.766 304.647 210.385 305.486 179.591 283.748C178.725 283.137 178.213 282.15 178.223 281.11C178.271 275.663 180.688 272.45 185.406 271.561C186.284 271.394 187.203 271.64 187.931 272.235C194.045 277.225 215.655 293.402 237.026 292.053C237.099 292.048 237.17 292.046 237.243 292.046ZM230.401 309.44C230.881 309.44 231.17 309.425 231.257 309.42C231.513 309.41 238.871 309.047 243.353 301.733C244.461 299.925 245.105 297.905 245.266 295.729C245.432 293.478 244.613 291.264 243.019 289.652C241.372 287.987 239.075 287.119 236.724 287.268C217.095 288.515 196.734 273.232 190.962 268.52C189.136 267.032 186.788 266.422 184.519 266.849C177.541 268.166 173.497 273.347 173.429 281.067C173.406 283.68 174.675 286.147 176.827 287.666C205.943 308.219 226.047 309.44 230.401 309.44Z" fill="#1A1A1A"/>
<path d="M123.48 278.873C123.833 278.131 124.495 276.737 125.421 274.777L125.419 274.775C124.492 276.737 123.829 278.13 123.478 278.873H123.48Z" fill="#8C7B94"/>
<path d="M123.249 279.359C123.298 279.255 123.376 279.094 123.48 278.873H123.479C123.375 279.092 123.298 279.255 123.249 279.359Z" fill="#371A45"/>
<path d="M125.421 274.777V274.775L125.419 274.773C125.419 274.775 125.419 274.775 125.419 274.775L125.421 274.777Z" fill="#371A45"/>
<path d="M125.421 274.775C126.026 273.492 126.745 271.966 127.564 270.221C126.745 271.966 126.026 273.492 125.419 274.774L125.421 274.775Z" fill="#371A45"/>
<path d="M123.187 279.499C123.187 279.499 123.212 279.456 123.244 279.366C123.206 279.451 123.18 279.493 123.18 279.493L123.187 279.499Z" fill="#371A45"/>
<path d="M34.9833 266.288C35.8859 267.245 36.8023 268.32 37.6706 269.382C38.5404 270.453 39.3923 271.547 40.1867 272.679C40.9783 273.813 41.755 274.967 42.4302 276.179C43.1068 277.39 43.7245 278.643 44.1765 279.983C44.0615 278.575 43.7574 277.171 43.3807 275.788C43.0027 274.402 42.5138 273.051 41.9974 271.707C41.4783 270.365 40.8934 269.05 40.2826 267.745C39.6594 266.433 39.0321 265.167 38.2938 263.854C37.7336 262.857 36.4722 262.503 35.475 263.062C34.4779 263.622 34.1246 264.884 34.6834 265.881C34.7669 266.029 34.8738 266.17 34.9833 266.288Z" fill="#1A1A1A"/>
<path d="M229.249 193.6L234.38 206.359L239.493 219.064L241.535 224.139L243.731 229.597L248.167 240.616C250.228 242.714 252.098 244.75 253.796 246.737C277.539 274.485 267.356 291.003 267.356 291.003C267.356 291.003 259.869 298.079 259.137 303.142C258.423 308.132 263.77 311.934 263.77 311.934C263.77 311.934 258.571 326.718 266.914 334.686C272.605 340.112 290.939 340.026 296.605 339.147C310.596 336.981 322.722 307.769 323.811 299.685C329.717 255.874 296.494 227.056 267.818 210.666C264.834 208.955 261.906 207.387 259.07 205.947C257.605 205.202 256.171 204.495 254.769 203.824C249.619 201.357 244.918 199.352 240.994 197.802C235.511 195.623 231.543 194.319 229.981 193.82C229.501 193.674 229.249 193.6 229.249 193.6Z" fill="white"/>
<path d="M288.927 337.136C289.401 337.136 289.876 337.132 290.349 337.122C291.655 337.099 292.959 337.041 294.235 336.937C294.87 336.885 295.505 336.822 296.09 336.735C296.384 336.692 296.619 336.621 296.887 336.57L297.278 336.488L297.667 336.355C299.66 335.739 301.582 334.435 303.348 332.896C301.711 332.989 299.718 333.045 297.527 333.045C287.921 333.045 274.502 331.967 270.506 328.158C266.318 324.158 266.016 319.934 266.753 316.72C267.125 315.104 266.956 313.467 266.334 312.029L266.09 312.752C265.927 313.238 265.741 313.89 265.593 314.48C265.44 315.087 265.307 315.702 265.188 316.318C264.951 317.553 264.784 318.799 264.699 320.037C264.528 322.512 264.673 324.982 265.31 327.226C265.933 329.466 267.083 331.47 268.686 332.963C269.365 333.578 270.332 334.145 271.413 334.594C272.496 335.046 273.678 335.409 274.896 335.707C277.337 336.306 279.916 336.652 282.51 336.873C284.636 337.05 286.783 337.136 288.927 337.136Z" fill="#B9AFBE"/>
<path d="M268.202 293.639C270.408 292.765 272.757 291.816 275.017 289.798C280.171 285.197 288.435 254.412 252.064 236.991C251.643 236.789 251.217 236.698 250.808 236.698C249.126 236.698 247.708 238.232 247.988 239.974C248.088 239.934 248.194 239.912 248.303 239.912C248.456 239.912 248.611 239.955 248.751 240.042C250.835 241.352 252.718 242.904 254.577 244.491C256.375 246.139 257.953 248.01 259.565 249.845C259.987 250.29 260.313 250.815 260.682 251.305C261.039 251.804 261.408 252.295 261.754 252.802C262.449 253.817 263.181 254.802 263.814 255.859L265.617 259.1C265.91 259.644 266.225 260.174 266.499 260.728L267.268 262.427L268.044 264.122C268.297 264.691 268.589 265.237 268.779 265.837L270.061 269.366C270.431 270.565 270.714 271.801 271.04 273.018C271.223 273.621 271.299 274.257 271.403 274.884L271.702 276.769C271.827 277.392 271.822 278.041 271.873 278.678L271.985 280.599L271.921 282.538L271.883 283.507L271.762 284.478C271.665 285.126 271.62 285.774 271.476 286.419C271.328 287.063 271.202 287.709 271.029 288.35C270.819 288.991 270.661 289.631 270.395 290.271C270.264 290.593 270.147 290.908 269.999 291.234L269.76 291.729L269.631 291.984L269.454 292.298L269.321 292.531L269.048 292.796C268.767 293.069 268.485 293.35 268.202 293.639Z" fill="#B9AFBE"/>
<path d="M229.014 194.386C238.608 199.406 248.429 203.493 257.934 208.346C267.483 213.071 276.693 218.531 285.106 225.015C293.514 231.47 301.268 238.82 307.494 247.295C309.051 249.408 310.524 251.582 311.862 253.832C313.232 256.065 314.434 258.389 315.561 260.744C317.758 265.477 319.487 270.424 320.548 275.522C321.123 278.062 321.459 280.646 321.741 283.234C321.942 285.829 322.091 288.433 322.003 291.042C321.978 293.65 321.734 296.255 321.427 298.85L321.373 299.337L321.304 299.76C321.266 300.034 321.194 300.338 321.133 300.632C321.002 301.228 320.847 301.84 320.671 302.454C320.322 303.681 319.925 304.919 319.482 306.147C317.716 311.068 315.485 315.888 312.896 320.438C311.592 322.707 310.184 324.908 308.647 326.981C307.108 329.046 305.447 331.007 303.608 332.667C301.772 334.306 299.758 335.709 297.667 336.356L297.278 336.489L296.887 336.571C296.619 336.622 296.385 336.693 296.09 336.735C295.505 336.823 294.87 336.886 294.235 336.938C292.959 337.042 291.655 337.1 290.349 337.123C287.735 337.169 285.106 337.089 282.51 336.874C279.916 336.653 277.337 336.307 274.896 335.708C273.678 335.409 272.496 335.046 271.413 334.595C270.332 334.145 269.365 333.578 268.686 332.963C267.084 331.47 265.933 329.466 265.31 327.227C264.673 324.982 264.528 322.513 264.699 320.038C264.784 318.8 264.951 317.553 265.188 316.319C265.307 315.703 265.44 315.088 265.593 314.481C265.741 313.891 265.928 313.239 266.091 312.753L266.662 311.051L265.196 309.931C265.107 309.863 264.903 309.705 264.75 309.569C264.584 309.431 264.424 309.279 264.262 309.131C263.947 308.823 263.636 308.508 263.361 308.175C262.802 307.514 262.338 306.812 262.023 306.112C261.706 305.412 261.543 304.725 261.535 304.069C261.541 303.429 261.728 302.754 262.042 301.964C262.723 300.39 263.82 298.749 265.05 297.208C266.266 295.671 267.668 294.135 269.048 292.797L269.322 292.531L269.454 292.298L269.631 291.984L269.76 291.73L270 291.234C270.147 290.908 270.264 290.593 270.395 290.271C270.661 289.631 270.819 288.992 271.03 288.351C271.202 287.71 271.328 287.063 271.476 286.419C271.62 285.774 271.665 285.126 271.762 284.479L271.883 283.507L271.921 282.538L271.986 280.6L271.873 278.678C271.823 278.041 271.827 277.392 271.702 276.769L271.403 274.884C271.299 274.257 271.223 273.621 271.041 273.019C270.715 271.801 270.431 270.566 270.061 269.366L268.779 265.837C268.589 265.238 268.297 264.691 268.044 264.123L267.268 262.427L266.499 260.729C266.225 260.174 265.91 259.644 265.617 259.1L263.814 255.859C263.181 254.802 262.449 253.817 261.754 252.802C261.408 252.296 261.039 251.804 260.682 251.305C260.313 250.815 259.987 250.29 259.565 249.845C257.953 248.01 256.376 246.139 254.577 244.491C252.719 242.904 250.835 241.352 248.751 240.043C248.356 239.795 247.837 239.914 247.589 240.307C247.425 240.57 247.422 240.888 247.555 241.145L247.581 241.192C248.725 243.379 250.07 245.323 251.441 247.232C251.799 247.695 252.115 248.191 252.438 248.678L253.427 250.122C254.094 251.077 254.794 252.001 255.481 252.934C256.169 253.865 256.755 254.857 257.414 255.802L258.392 257.225C258.709 257.704 259.083 258.151 259.364 258.648L261.142 261.585C261.434 262.076 261.75 262.557 262.024 263.057L262.773 264.588C264.872 268.633 266.247 272.995 266.816 277.371C266.933 277.918 266.918 278.466 266.963 279.014L267.064 280.656L267.005 282.283L266.978 283.097L266.875 283.896C266.793 284.425 266.763 284.97 266.644 285.485C266.521 285.999 266.422 286.525 266.288 287.032C266.121 287.516 265.999 288.041 265.804 288.499C265.708 288.726 265.621 288.971 265.523 289.187L265.374 289.496L265.304 289.639L265.263 289.715L265.67 289.216C264.029 290.809 262.591 292.392 261.191 294.153C259.808 295.906 258.501 297.768 257.501 300.061C257.032 301.217 256.617 302.594 256.614 304.072C256.621 305.526 256.985 306.92 257.536 308.134C258.086 309.353 258.809 310.413 259.608 311.358C260.005 311.835 260.432 312.273 260.871 312.699C261.097 312.906 261.319 313.115 261.557 313.315C261.802 313.525 262.009 313.695 262.343 313.941L261.447 311.12C261.182 311.912 261.005 312.561 260.821 313.278C260.643 313.98 260.491 314.685 260.354 315.393C260.082 316.809 259.889 318.243 259.789 319.697C259.593 322.598 259.738 325.601 260.572 328.561C261.391 331.514 262.983 334.389 265.347 336.579C266.674 337.775 268.103 338.536 269.505 339.131C270.913 339.718 272.321 340.143 273.724 340.488C276.529 341.173 279.317 341.54 282.099 341.778C284.882 342.008 287.656 342.093 290.439 342.044C291.831 342.018 293.224 341.959 294.639 341.844C295.349 341.785 296.058 341.717 296.807 341.606C297.18 341.552 297.6 341.448 297.993 341.367L298.59 341.232L299.162 341.046C302.246 340.064 304.729 338.25 306.909 336.319C309.078 334.358 310.915 332.172 312.6 329.913C314.278 327.65 315.782 325.294 317.167 322.885C319.914 318.052 322.236 313.037 324.119 307.797C324.591 306.488 325.021 305.155 325.409 303.785C325.605 303.102 325.782 302.405 325.942 301.683C326.017 301.317 326.101 300.964 326.159 300.569L326.251 299.993L326.31 299.475C326.638 296.712 326.895 293.933 326.924 291.143C327.015 288.353 326.86 285.561 326.642 282.776C326.342 279.998 325.976 277.222 325.361 274.494C324.22 269.018 322.365 263.709 320.017 258.655C318.816 256.142 317.533 253.665 316.079 251.296C314.658 248.906 313.099 246.606 311.456 244.375C304.881 235.43 296.792 227.783 288.097 221.106C279.354 214.466 270.028 208.676 260.335 203.619C255.476 201.115 250.468 198.912 245.363 196.972C244.086 196.49 242.795 196.04 241.493 195.627L239.538 195.01L237.562 194.455C234.916 193.744 232.253 193.132 229.479 192.813C229.023 192.761 228.61 193.088 228.558 193.545C228.517 193.897 228.702 194.222 228.997 194.378L229.014 194.386Z" fill="#1A1A1A"/>
<path d="M131.198 157.484C149.52 159.909 166.734 144.073 169.644 122.109C170.377 116.566 170.131 111.164 169.06 106.149C165.879 91.2667 155.438 79.7547 141.738 77.9399C123.446 75.517 106.256 91.2969 103.309 113.206C103.303 113.243 103.297 113.28 103.291 113.317C100.381 135.281 112.876 155.055 131.198 157.484Z" fill="#848484"/>
<path d="M114.206 92.8767C116.21 92.1508 118.278 91.6385 120.385 91.3591C121.186 89.1046 122.075 86.8872 123.049 84.7053C119.757 86.8091 116.76 89.5786 114.206 92.8767Z" fill="#DADADA"/>
<path d="M119.719 150.368C119.346 149.126 119 147.874 118.678 146.613C117.977 144.021 117.401 141.413 116.955 138.797C116.052 134.142 115.504 129.492 115.313 124.861C114.037 125.584 112.787 126.006 111.606 126.006C110.928 126.006 110.274 125.866 109.65 125.565C107.626 124.583 106.278 123.108 105.361 121.412C105.639 128.688 107.689 135.599 111.363 141.412C113.679 145.079 116.512 148.096 119.719 150.368Z" fill="#695F6E"/>
<path d="M138.027 80.155C139.149 80.155 140.279 80.229 141.413 80.3797C149.538 81.4548 156.697 86.2966 161.572 94.0105C166.535 101.866 168.536 111.73 167.204 121.783C164.477 142.368 148.469 157.289 131.521 155.043C123.396 153.967 116.237 149.126 111.363 141.412C106.399 133.555 104.398 123.692 105.73 113.639C108.274 94.4324 122.381 80.155 138.027 80.155ZM134.893 160.188C152.976 160.188 169.212 144.11 172.084 122.43C173.566 111.235 171.31 100.21 165.733 91.3808C160.064 82.4109 151.657 76.7706 142.058 75.4995C122.423 72.8958 103.935 89.718 100.85 112.993V112.994C99.3684 124.187 101.623 135.213 107.201 144.042C112.87 153.011 121.277 158.652 130.875 159.923C132.221 160.101 133.562 160.188 134.893 160.188Z" fill="#1A1A1A"/>
<path d="M131.246 170.139C200.267 273.094 346.634 182.365 291.221 76.6363C223.068 -30.4302 71.86 63.4971 131.246 170.139Z" fill="white"/>
<path d="M131.246 170.139C200.267 273.094 346.634 182.365 291.221 76.6363C223.068 -30.4302 71.86 63.4971 131.246 170.139Z" fill="white"/>
<path d="M142.02 193.988C142.672 192.752 143.317 191.493 143.958 190.21C142.565 188.798 141.199 187.331 139.864 185.809C138.913 186.298 137.901 186.791 136.827 187.282C138.516 189.624 140.247 191.858 142.02 193.988Z" fill="#B9AFBE"/>
<path d="M136.827 187.282C137.901 186.791 138.913 186.298 139.864 185.809C139.302 185.171 138.745 184.521 138.194 183.862C137.305 184.31 136.36 184.76 135.363 185.208C135.848 185.908 136.336 186.6 136.827 187.282Z" fill="#1A1A1A"/>
<path d="M212.537 228.907C214.05 228.907 215.56 228.869 217.068 228.791L226.787 216.198C221.06 217.286 215.275 217.835 209.501 217.835C203.78 217.835 198.07 217.295 192.445 216.201C184.702 214.696 177.261 212.178 170.194 208.696C160.892 204.531 152.252 198.49 144.48 190.733L144.418 190.698L144.18 190.443C144.128 190.387 144.077 190.332 144.025 190.277C144.002 190.254 143.98 190.232 143.958 190.21C143.317 191.494 142.672 192.752 142.02 193.988C145.816 198.565 149.797 202.656 153.912 206.274C171.844 222.026 192.423 228.907 212.537 228.907Z" fill="#B9AFBE"/>
<path d="M217.068 228.79C225.416 228.365 233.647 226.766 241.535 224.139L239.493 219.064L237.285 213.579C233.82 214.654 230.314 215.528 226.787 216.197L217.068 228.79Z" fill="#B9AFBE"/>
<path d="M241.535 224.139C242.256 223.899 242.975 223.654 243.688 223.395C247.705 221.949 251.625 220.24 255.421 218.282C258.894 216.484 262.259 214.482 265.495 212.29C263.005 210.919 260.482 209.607 257.934 208.346C256.716 207.725 255.495 207.116 254.269 206.516C248.77 209.422 243.083 211.782 237.285 213.579L239.493 219.065L241.535 224.139Z" fill="#B9AFBE"/>
<path d="M265.495 212.29C266.277 211.76 267.052 211.218 267.818 210.666C264.835 208.955 261.906 207.387 259.07 205.947C258.407 205.61 257.752 205.281 257.103 204.96C256.163 205.495 255.219 206.013 254.269 206.516C255.495 207.115 256.717 207.725 257.934 208.345C260.482 209.607 263.005 210.919 265.495 212.29Z" fill="#371A45"/>
<path d="M131.246 170.139C200.267 273.094 346.634 182.365 291.221 76.6363C223.068 -30.4302 71.86 63.4971 131.246 170.139Z" fill="white"/>
<path d="M131.246 170.139H131.238H131.246ZM289.701 77.5152C317.987 131.566 292.377 179.091 256.596 200.377C219.97 222.167 167.479 220.979 132.743 169.221C102.419 114.699 128.045 66.3634 164.7 44.5173C200.999 22.8821 255.587 23.9847 289.701 77.5152ZM209.502 217.129C226.288 217.129 243.182 212.439 258.389 203.393C278.789 191.257 293.887 172.685 300.903 151.099C308.747 126.964 305.937 100.934 292.774 75.8209L292.7 75.6935C276.694 50.5465 254.91 34.542 229.704 29.4085C207.351 24.8557 183.627 29.151 162.903 41.5026C142.136 53.8803 126.899 72.7843 120.001 94.7318C112.269 119.33 115.628 145.7 129.712 170.992L129.789 171.115C146.019 195.327 167.732 210.676 192.581 215.507C198.161 216.592 203.826 217.129 209.502 217.129Z" fill="#371A45"/>
<path d="M228.48 210.867C238.31 208.661 247.708 204.844 256.234 199.77C263.166 195.646 269.713 190.531 275.552 184.569C273.607 183.536 271.757 182.294 270.019 180.853C261.801 191.591 251.1 200.444 238.712 206.584C235.365 208.245 231.946 209.673 228.48 210.867ZM201.564 210.45C214.278 210.45 226.368 207.21 236.526 202.176C247.932 196.522 258.326 187.978 266.348 177.327C265.263 176.125 264.241 174.832 263.285 173.451C260.917 176.708 258.314 179.695 255.503 182.422C244.231 193.878 229.76 201.737 213.784 204.918C208.436 205.983 202.994 206.512 197.494 206.512C187.066 206.512 176.431 204.611 165.831 200.858C167.291 201.743 168.758 202.576 170.236 203.359C180.629 208.339 191.3 210.45 201.564 210.45Z" fill="#B9AFBE"/>
<path d="M131.246 170.139H131.238H131.246ZM289.089 77.8698C317.145 131.504 291.735 178.651 256.234 199.77C219.901 221.384 167.825 220.197 133.346 168.852C103.277 114.752 128.697 66.7975 165.062 45.124C201.069 23.6628 255.226 24.7653 289.089 77.8698ZM209.502 217.834C226.414 217.834 243.434 213.113 258.751 203.999C279.297 191.776 294.506 173.067 301.575 151.317C309.48 126.997 306.653 100.777 293.4 75.4935L293.296 75.3141C277.185 50.0013 255.243 33.8886 229.844 28.7154C207.32 24.1271 183.416 28.4538 162.541 40.8958C141.624 53.3625 126.277 72.4063 119.327 94.5208C111.536 119.308 114.914 145.869 129.096 171.336L129.201 171.508C145.54 195.879 167.409 211.334 192.445 216.2C198.07 217.295 203.78 217.834 209.502 217.834Z" fill="#293856"/>
<path d="M131.246 170.139H131.238H131.246ZM289.089 77.8698C317.145 131.504 291.735 178.651 256.234 199.77C219.901 221.384 167.825 220.197 133.346 168.852C103.277 114.752 128.697 66.7975 165.062 45.124C201.069 23.6628 255.226 24.7653 289.089 77.8698ZM209.502 217.834C226.414 217.834 243.434 213.113 258.751 203.999C279.297 191.776 294.506 173.067 301.575 151.317C309.48 126.997 306.653 100.777 293.4 75.4935L293.296 75.3141C277.185 50.0013 255.243 33.8886 229.844 28.7154C207.32 24.1271 183.416 28.4538 162.541 40.8958C141.624 53.3625 126.277 72.4063 119.327 94.5208C111.536 119.308 114.914 145.869 129.096 171.336L129.201 171.508C145.54 195.879 167.409 211.334 192.445 216.2C198.07 217.295 203.78 217.834 209.502 217.834Z" fill="#1A1A1A"/>
<path d="M145.975 188.76C239.531 244.35 319.434 135.225 248.538 71.5689C164.796 5.09236 70.248 108.01 145.975 188.76Z" fill="#333333"/>
<path d="M121.119 124.235C120.408 222.591 261.046 231.216 276.456 141.401C231.224 194.205 147.335 171.91 121.119 124.235Z" fill="#1A1A1A"/>
<path d="M131.246 170.139H131.238H131.246ZM191.678 43.6792C203.127 43.6792 214.808 45.8487 226.026 50.2015C249.749 59.4083 268.364 77.1906 277.1 98.9916C294.189 145.033 269.63 185.765 236.526 202.175C207.725 216.451 163.416 216.284 133.329 168.829C112.206 134.934 115.966 79.8574 155.177 51.7601C166.411 46.3801 178.899 43.6792 191.678 43.6792ZM201.694 215.413C214.232 215.413 226.915 212.432 238.712 206.584C257.373 197.335 272.209 181.926 280.491 163.194C289.627 142.53 290.042 119.717 281.692 97.2206C272.428 74.0993 252.795 55.3103 227.807 45.6131C202.731 35.8816 175.411 36.5391 152.85 47.4183L152.661 47.5087L152.491 47.6306C133.596 61.0944 120.987 81.905 116.985 106.226C113.205 129.195 117.641 152.966 129.157 171.44L129.167 171.456C142.828 193.007 161.078 207.325 181.943 212.86C188.381 214.568 195.017 215.413 201.694 215.413Z" fill="#1A1A1A"/>
<path d="M145.975 188.759H145.968H145.975ZM246.948 73.4488C281.706 104.706 278.086 144.793 259.067 170.666C238.119 199.163 195.532 215.172 147.533 186.821C109.587 146.14 116.989 100.802 139.971 75.8457C163.081 50.7494 205.117 40.2852 246.948 73.4488ZM197.494 206.511C202.994 206.511 208.436 205.983 213.784 204.917C233.587 200.974 251.078 189.845 263.033 173.581C274.073 158.562 279.357 140.455 277.911 122.596C276.314 102.869 266.725 84.591 250.182 69.737L250.068 69.6412C230.249 53.9079 208.406 46.4213 186.909 47.9827C167.576 49.3893 149.621 58.1004 136.351 72.5106C122.77 87.2578 115.473 106.434 115.806 126.508C116.176 148.935 125.988 171.044 144.18 190.443L144.418 190.697L144.718 190.875C162.132 201.222 180.103 206.511 197.494 206.511Z" fill="#1A1A1A"/>
<path d="M315.638 141.732C309.585 185.016 265.695 182.593 267.308 140.687C271.987 95.0881 318.904 97.674 315.638 141.732Z" fill="white"/>
<path d="M313.19 141.471C310.18 162.795 297.965 171.544 287.865 170.644C278.33 169.797 269.043 160.258 269.764 140.861C271.994 119.389 284.232 109.134 295.179 110.1C304.897 110.959 314.669 121.141 313.19 141.471ZM289.265 175.629C301.212 175.629 314.808 165.433 318.075 142.072L318.092 141.913C319.85 118.207 307.671 106.262 295.612 105.197C282.254 104.012 267.393 115.742 264.86 140.437L264.848 140.593C263.976 163.274 275.56 174.492 287.43 175.547C288.035 175.601 288.647 175.629 289.265 175.629Z" fill="#371A45"/>
<path d="M317.355 144.13C312.412 179.202 279.501 177.942 280.801 144.047C284.46 106.663 320.226 108.073 317.355 144.13Z" fill="white"/>
<path d="M314.907 143.861C312.468 161.009 303.43 168.104 296.047 167.451C289.271 166.845 282.695 159.426 283.256 144.214C284.99 126.743 294.1 118.335 302.209 119.049C309.216 119.671 316.171 127.7 314.907 143.861ZM296.962 172.413C306.307 172.413 317.052 163.913 319.792 144.473L319.808 144.325C321.365 124.776 312.002 114.977 302.644 114.146C292.11 113.216 280.379 123.1 278.352 143.809L278.341 143.954C277.633 162.442 286.503 171.539 295.609 172.353C296.055 172.392 296.508 172.413 296.962 172.413Z" fill="#371A45"/>
<path d="M246.652 133.04C251.547 133.04 256.611 129.665 258.73 121.907C260.767 111.901 254.159 105.696 247.388 105.696C242.056 105.696 236.622 109.545 235.228 118.411C234.324 127.446 240.348 133.041 246.652 133.04Z" fill="#4D4D4D"/>
<path d="M243.239 153.825C245.22 153.824 247.286 152.564 248.215 149.801C249.251 145.411 246.617 142.873 243.808 142.873C241.827 142.873 239.76 144.133 238.832 146.896C237.795 151.287 240.43 153.825 243.239 153.825Z" fill="#4D4D4D"/>
<path d="M134.445 129.011C148.352 99.0209 166.889 72.27 209.671 68.6376C204.567 65.3094 196.595 63.3973 187.681 63.3973C160.837 63.3973 125.482 80.7509 134.445 129.011Z" fill="#4D4D4D"/>
<path d="M269.317 114.532C270.549 114.532 272.081 114.069 273.877 112.642C274.94 111.795 275.117 110.247 274.271 109.183C273.425 108.12 271.877 107.942 270.813 108.789C269.973 109.456 269.513 109.582 269.374 109.605C268.852 109.164 268.201 106.885 268.156 104.7C268.129 103.343 266.997 102.268 265.649 102.287C264.292 102.313 263.213 103.431 263.236 104.788C263.265 106.532 263.647 112.355 267.305 114.082C267.842 114.336 268.516 114.532 269.317 114.532Z" fill="#1A1A1A"/>
<path d="M258.442 141.317C255.533 163.282 268.029 183.056 286.35 185.483C304.674 187.91 321.886 172.072 324.796 150.106C327.705 128.141 315.211 108.367 296.888 105.94C278.565 103.513 261.353 119.352 258.442 141.317Z" fill="#848484"/>
<path d="M286.349 185.484C304.671 187.909 321.885 172.071 324.795 150.107C324.925 149.142 325.023 148.176 325.091 147.216C326.592 126.434 314.404 108.259 296.888 105.94C278.708 103.528 261.616 119.112 258.516 140.812C258.485 140.977 258.467 141.144 258.442 141.316C255.532 163.281 268.027 183.053 286.349 185.484Z" fill="#848484"/>
<path d="M265.748 126.439C271.397 120.778 278.211 116.82 285.534 115.165C285.712 113.352 285.879 111.341 286.016 109.16C277.735 111.504 270.408 117.795 265.748 126.439Z" fill="#DADADA"/>
<path d="M290.081 183.268C292.433 183.268 294.771 182.948 297.059 182.319C289.827 180.784 283.529 176.229 279.168 169.329C275.438 163.427 273.484 156.354 273.48 148.976C273.48 148.77 273.481 148.566 273.484 148.361C271.858 150.099 269.552 151.892 266.951 151.892C263.963 151.892 261.892 149.428 260.494 146.547C260.283 154.864 262.362 162.841 266.515 169.413C271.39 177.127 278.549 181.967 286.674 183.043C287.811 183.194 288.947 183.268 290.081 183.268Z" fill="#695F6E"/>
<path d="M293.18 108.156C294.302 108.156 295.431 108.228 296.565 108.379C304.69 109.455 311.849 114.296 316.723 122.01C321.688 129.866 323.688 139.729 322.356 149.782C321.024 159.836 316.525 168.839 309.687 175.131C302.972 181.309 294.798 184.12 286.674 183.043C278.549 181.967 271.39 177.126 266.515 169.412C261.551 161.556 259.55 151.693 260.882 141.64C263.427 122.432 277.534 108.156 293.18 108.156ZM290.103 188.192C298.307 188.192 306.318 184.92 313.02 178.752C320.704 171.682 325.753 161.623 327.236 150.429C328.718 139.236 326.463 128.209 320.885 119.381C315.216 110.412 306.809 104.771 297.211 103.5C277.572 100.898 259.086 117.717 256.003 140.993C254.52 152.186 256.775 163.213 262.354 172.041C268.022 181.011 276.429 186.651 286.027 187.923C287.387 188.103 288.747 188.192 290.103 188.192Z" fill="#1A1A1A"/>
<path d="M201.593 4.03192C234.177 3.44708 259.186 14.1962 273.424 35.1753L273.429 35.1821C276.629 39.8938 279.286 45.13 281.36 50.8634C294.353 86.7389 286.534 126.163 286.534 126.163L314.281 137.619C314.281 137.619 317.671 126.126 318.711 110.007C319.486 98.1017 318.981 83.675 314.89 69.4812C304.216 32.4565 282.431 21.1719 274.715 17.0314C243.953 0.525574 201.593 4.03192 201.593 4.03192Z" fill="#B50000"/>
<path d="M290.436 116.069C294.951 113.229 299.927 111.746 304.993 111.746C306.133 111.746 307.278 111.82 308.422 111.972C311.035 112.318 313.542 113.048 315.9 114.133C316.072 112.295 316.218 110.379 316.327 108.398C306.551 102.658 296.218 106.252 294.642 96.9015C292.577 84.6376 290.427 73.972 287.975 64.972C292.428 85.2101 291.622 104.589 290.436 116.069Z" fill="#DC0000"/>
<path d="M315.682 85.9507C315.054 80.7446 314.043 75.4317 312.524 70.164C302.878 36.7018 283.519 25.1596 275.252 20.2302C274.573 19.8248 273.958 19.4577 273.418 19.1235C262.539 12.3738 251.046 8.70312 240.541 6.81161C245.196 8.73599 249.681 11.0918 253.907 13.8257C259.841 15.6816 265.7 18.0251 271.207 20.9808C279.298 25.3254 302.154 37.162 313.346 76.0015C314.302 79.3161 315.072 82.643 315.682 85.9507Z" fill="#FF4141"/>
<path d="M240.541 6.81241C251.046 8.70392 262.539 12.3746 273.418 19.1243C273.958 19.4585 274.573 19.8256 275.252 20.231C283.52 25.1604 302.878 36.7026 312.524 70.1648C320.346 97.2978 314.699 125.624 312.612 134.269L289.305 124.646C290.727 116.059 295.237 81.9589 283.676 50.0252C276.633 30.5706 260.086 14.8934 240.541 6.81241ZM314.283 140.083C314.647 140.083 315.01 140.002 315.345 139.842C315.974 139.541 316.446 138.988 316.644 138.318C317.07 136.873 326.976 102.529 317.254 68.8019C307.069 33.4715 286.54 21.2309 277.774 16.0029C277.12 15.6139 276.53 15.2619 276.012 14.9414C241.59 -6.41302 202.734 1.28584 201.096 1.62415C199.791 1.89397 198.936 3.15543 199.172 4.46758C199.406 5.77971 200.64 6.67134 201.963 6.46725C233.697 1.65974 268.277 21.9485 279.048 51.7003C291.642 86.4843 284.197 125.298 284.121 125.687C283.893 126.837 284.511 127.991 285.596 128.438L313.344 139.897C313.645 140.02 313.964 140.083 314.283 140.083Z" fill="#1A1A1A"/>
<path d="M305.015 116.67C305.935 116.67 306.855 116.73 307.776 116.852C314.371 117.725 320.187 121.661 324.151 127.936C328.205 134.351 329.838 142.412 328.749 150.631C326.524 167.43 313.498 179.617 299.704 177.783C293.108 176.911 287.293 172.974 283.329 166.7C279.275 160.284 277.642 152.224 278.731 144.005C279.82 135.785 283.495 128.429 289.079 123.29C293.778 118.966 299.351 116.67 305.015 116.67ZM302.437 182.886C317.609 182.886 331.224 169.428 333.629 151.276C334.868 141.917 332.981 132.694 328.312 125.306C323.554 117.777 316.491 113.041 308.422 111.972C300.353 110.904 292.3 113.636 285.746 119.668C279.316 125.585 275.092 133.999 273.851 143.358C272.611 152.718 274.5 161.942 279.168 169.33C283.926 176.859 290.99 181.594 299.058 182.663C300.19 182.813 301.318 182.886 302.437 182.886Z" fill="#371A45"/>
<path d="M305.015 116.67C305.935 116.67 306.855 116.73 307.776 116.852C314.371 117.725 320.187 121.661 324.151 127.936C328.205 134.351 329.838 142.412 328.749 150.631C326.524 167.43 313.498 179.617 299.704 177.783C293.108 176.911 287.293 172.974 283.329 166.7C279.275 160.284 277.642 152.224 278.731 144.005C279.82 135.785 283.495 128.429 289.079 123.29C293.778 118.966 299.351 116.67 305.015 116.67ZM302.437 182.886C317.609 182.886 331.224 169.428 333.629 151.276C334.868 141.917 332.981 132.694 328.312 125.306C323.554 117.777 316.491 113.041 308.422 111.972C300.353 110.904 292.3 113.636 285.746 119.668C279.316 125.585 275.092 133.999 273.851 143.358C272.611 152.718 274.5 161.942 279.168 169.33C283.926 176.859 290.99 181.594 299.058 182.663C300.19 182.813 301.318 182.886 302.437 182.886Z" fill="#371A45"/>
<path d="M305.015 116.67C305.935 116.67 306.855 116.73 307.776 116.852C314.371 117.725 320.187 121.661 324.151 127.936C328.205 134.351 329.838 142.412 328.749 150.631C326.524 167.43 313.498 179.617 299.704 177.783C293.108 176.911 287.293 172.974 283.329 166.7C279.275 160.284 277.642 152.224 278.731 144.005C279.82 135.785 283.495 128.429 289.079 123.29C293.778 118.966 299.351 116.67 305.015 116.67ZM302.437 182.886C317.609 182.886 331.224 169.428 333.629 151.276C334.868 141.917 332.981 132.694 328.312 125.306C323.554 117.777 316.491 113.041 308.422 111.972C300.353 110.904 292.3 113.636 285.746 119.668C279.316 125.585 275.092 133.999 273.851 143.358C272.611 152.718 274.5 161.942 279.168 169.33C283.926 176.859 290.99 181.594 299.058 182.663C300.19 182.813 301.318 182.886 302.437 182.886Z" fill="#371A45"/>
<path d="M299.38 180.224C314.539 182.23 328.782 169.125 331.188 150.951C331.483 148.717 331.588 146.515 331.514 144.362C330.991 128.975 321.399 116.171 308.098 114.411C292.939 112.406 278.708 125.511 276.29 143.673V143.678C273.884 161.852 284.221 178.212 299.38 180.224Z" fill="#DC0000"/>
<path d="M278.52 145.996C282.111 131.227 293.685 120.719 306.472 120.719C307.49 120.719 308.514 120.785 309.544 120.922C315.761 121.743 321.168 124.98 325.217 129.763C324.883 129.141 324.527 128.53 324.151 127.936C320.187 121.661 314.371 117.725 307.776 116.852C306.855 116.731 305.935 116.67 305.015 116.67C299.35 116.67 293.778 118.966 289.079 123.29C283.495 128.429 279.82 135.785 278.731 144.005C278.643 144.67 278.572 145.333 278.52 145.996Z" fill="#FF4141"/>
<path d="M302.459 177.967C308.949 177.965 315.115 174.935 319.875 169.888C317.442 171.242 314.765 171.992 312 171.992C311.333 171.992 310.661 171.948 309.986 171.859C307.167 171.485 304.602 170.354 302.41 168.651C302.41 168.651 302.409 168.65 302.408 168.65C302.408 168.65 302.406 168.649 302.405 168.647C298.792 165.84 296.194 161.479 295.15 156.412C294.982 155.599 294.854 154.769 294.768 153.922C294.665 152.91 294.623 151.876 294.646 150.828C294.666 149.873 294.739 148.906 294.868 147.933C295.085 146.292 295.45 144.713 295.944 143.215C295.791 143.411 289.572 151.383 284.107 151.383C283.685 151.383 283.27 151.336 282.861 151.234C280.953 150.757 279.504 149.665 278.409 148.198C278.271 154.932 279.968 161.381 283.329 166.7C287.293 172.974 293.108 176.911 299.704 177.783C300.628 177.906 301.545 177.967 302.459 177.967Z" fill="#B50000"/>
<path d="M305.015 116.67C305.935 116.67 306.855 116.73 307.776 116.852C314.371 117.725 320.187 121.661 324.151 127.936C328.205 134.351 329.838 142.412 328.749 150.631C326.524 167.43 313.498 179.617 299.704 177.783C293.108 176.911 287.293 172.974 283.329 166.7C279.275 160.284 277.642 152.224 278.731 144.005C279.82 135.785 283.495 128.429 289.079 123.29C293.778 118.966 299.351 116.67 305.015 116.67ZM302.437 182.886C317.609 182.886 331.224 169.428 333.629 151.276C334.868 141.917 332.981 132.694 328.312 125.306C323.554 117.777 316.491 113.041 308.422 111.972C300.353 110.904 292.3 113.636 285.746 119.668C279.316 125.585 275.092 133.999 273.851 143.358C272.611 152.718 274.5 161.942 279.168 169.33C283.926 176.859 290.99 181.594 299.058 182.663C300.19 182.813 301.318 182.886 302.437 182.886Z" fill="#1A1A1A"/>
<path d="M294.868 147.933C293.292 159.833 300.06 170.545 309.986 171.86C319.912 173.175 329.237 164.594 330.813 152.695C332.389 140.796 325.62 130.084 315.694 128.769C305.769 127.454 296.444 136.035 294.868 147.933Z" fill="white"/>
<path d="M294.769 153.922C294.666 152.91 294.624 151.876 294.646 150.828C294.623 151.876 294.665 152.91 294.769 153.922Z" fill="#BCD3EA"/>
<path d="M297.194 140.13C300.562 133.205 306.858 128.636 313.681 128.636C314.347 128.636 315.02 128.68 315.694 128.769C320.743 129.437 324.976 132.538 327.708 136.989C324.976 132.536 320.745 129.433 315.696 128.766C315.023 128.677 314.352 128.633 313.687 128.633C306.859 128.633 300.562 133.201 297.194 140.13ZM327.714 136.999C327.713 136.997 327.712 136.995 327.711 136.993C327.712 136.996 327.713 136.997 327.714 136.999Z" fill="#B9E0FD"/>
<path d="M294.819 154.374C294.571 152.301 294.577 150.136 294.87 147.93C295.338 144.411 296.482 141.181 298.119 138.419C298.025 140.222 298.122 141.988 298.39 143.684C301.888 137.51 307.806 133.523 314.18 133.523C314.846 133.523 315.515 133.567 316.188 133.656C323.688 134.647 329.379 141.002 331.04 149.173C331.024 144.645 329.812 140.422 327.714 136.998C327.713 136.997 327.712 136.996 327.711 136.993C327.71 136.991 327.709 136.99 327.708 136.989C324.976 132.537 320.743 129.436 315.694 128.768C315.02 128.679 314.347 128.635 313.681 128.635C306.858 128.635 300.562 133.204 297.194 140.129C296.049 142.485 295.243 145.115 294.87 147.93C294.74 148.905 294.666 149.873 294.646 150.828C294.624 151.876 294.666 152.91 294.768 153.922C294.784 154.072 294.801 154.224 294.819 154.374Z" fill="white"/>
<path d="M302.411 168.651C302.41 168.651 302.409 168.651 302.408 168.65C302.409 168.65 302.41 168.651 302.411 168.651ZM302.405 168.647C298.791 165.838 296.195 161.478 295.15 156.412C296.194 161.478 298.792 165.839 302.405 168.647Z" fill="#294F91"/>
<path d="M312.002 171.991C321.144 171.991 329.345 163.783 330.812 152.692C330.905 151.991 330.972 151.29 331.003 150.594C327.486 156.551 321.689 160.375 315.451 160.375C314.782 160.375 314.109 160.331 313.432 160.241C305.62 159.207 299.763 152.353 298.39 143.684C296.87 146.366 295.807 149.461 295.362 152.821C295.208 154.003 295.134 155.172 295.134 156.322C295.004 155.684 294.898 155.035 294.819 154.374C294.901 155.065 295.012 155.745 295.15 156.412C296.195 161.479 298.791 165.838 302.405 168.648C302.407 168.649 302.407 168.649 302.408 168.65C302.409 168.652 302.409 168.652 302.41 168.652C304.602 170.354 307.167 171.484 309.987 171.857C310.661 171.947 311.335 171.991 312.002 171.991Z" fill="#B9AFBE"/>
<path d="M295.135 156.322C295.135 155.172 295.209 154.003 295.362 152.821C295.807 149.461 296.87 146.366 298.39 143.684C298.122 141.989 298.025 140.223 298.119 138.419C296.482 141.182 295.338 144.411 294.87 147.93C294.577 150.137 294.571 152.302 294.819 154.374C294.898 155.035 295.004 155.684 295.135 156.322Z" fill="#B9AFBE"/>
<path d="M313.68 131.096C314.243 131.096 314.807 131.133 315.371 131.207C323.936 132.343 329.769 141.836 328.373 152.371C326.978 162.907 318.874 170.551 310.309 169.42C306.245 168.88 302.653 166.44 300.194 162.551C297.646 158.517 296.621 153.441 297.308 148.256C297.994 143.071 300.306 138.436 303.816 135.207C306.733 132.522 310.182 131.096 313.68 131.096ZM311.985 174.452C322.34 174.453 331.622 165.328 333.253 153.016C335.004 139.792 327.273 127.819 316.018 126.329C310.481 125.596 304.964 127.461 300.483 131.584C296.127 135.593 293.266 141.285 292.428 147.609C291.591 153.934 292.87 160.174 296.033 165.179C299.286 170.326 304.126 173.564 309.663 174.298C310.441 174.401 311.217 174.452 311.985 174.452Z" fill="#1A1A1A"/>
<path d="M264.352 264.113C265.219 264.113 266.027 263.558 266.307 262.687C269.452 252.923 274.558 246.635 281.485 243.994C293.894 239.264 308.383 247.637 308.528 247.722C309.506 248.296 310.764 247.97 311.34 246.993C311.915 246.015 311.591 244.758 310.614 244.181C309.955 243.794 294.314 234.724 280.045 240.145C271.883 243.247 265.945 250.407 262.396 261.428C262.049 262.508 262.642 263.665 263.722 264.013C263.93 264.081 264.143 264.113 264.352 264.113Z" fill="#1A1A1A"/>
<path d="M40.0127 166.157C39.0417 165.407 37.9267 164.79 36.7201 164.452C35.5148 164.104 34.2588 164.083 33.1083 164.271C31.9523 164.463 30.888 164.866 29.9279 165.417C28.9691 165.991 28.1021 166.621 27.3571 167.757C26.9872 168.318 27.1448 169.073 27.7063 169.443C28.1775 169.752 28.7829 169.692 29.1842 169.335L29.3773 169.162C29.7635 168.817 30.5045 168.41 31.2181 168.21C31.9413 167.991 32.6919 167.901 33.3849 167.951C34.0766 168.008 34.7108 168.179 35.2408 168.498C35.775 168.81 36.2229 169.237 36.6255 169.729C37.4939 170.788 39.0567 170.941 40.1155 170.073C41.1742 169.205 41.329 167.642 40.4606 166.583C40.3428 166.439 40.2113 166.312 40.0703 166.201L40.0127 166.157Z" fill="#1A1A1A"/>
<path d="M42.196 175.212C41.1454 174.083 39.6196 173.398 38.2773 173.269C36.9214 173.12 35.7257 173.342 34.6505 173.661C33.5726 173.989 32.5974 174.435 31.6811 174.953C30.7565 175.49 29.9334 176.025 29.0458 176.842C28.5459 177.299 28.513 178.076 28.9719 178.574C29.3663 179.003 29.995 179.088 30.4799 178.812L30.6196 178.732C31.2441 178.378 32.1193 178.011 32.9315 177.763C33.7602 177.507 34.6025 177.333 35.3942 177.276C36.1831 177.217 36.9282 177.288 37.4501 177.496C37.9842 177.709 38.2212 177.995 38.3979 178.344C39.0252 179.577 40.5332 180.068 41.7659 179.441C42.9999 178.814 43.4916 177.306 42.8643 176.073C42.7575 175.864 42.626 175.676 42.474 175.512L42.196 175.212Z" fill="#1A1A1A"/>
<path d="M36.3707 317.386C37.8596 316.204 38.9183 314.168 39.1525 310.858C40.2839 294.892 21.2606 254.6 5.0863 260.531C4.26177 262.284 3.56049 264.407 3.01947 266.96C-1.08404 286.199 18.1104 315.62 36.3707 317.386Z" fill="#848484"/>
<path d="M36.3406 317.383C36.3379 317.381 36.3379 317.381 36.3352 317.381C36.3379 317.381 36.3379 317.381 36.3406 317.383ZM36.3078 317.378C36.3064 317.378 36.305 317.378 36.3037 317.378C36.305 317.378 36.3064 317.378 36.3078 317.378Z" fill="#371A45"/>
<path d="M39.1553 310.818C39.1553 310.817 39.1553 310.814 39.1553 310.813C39.1553 310.814 39.1553 310.817 39.1553 310.818ZM39.158 310.777C39.158 310.774 39.158 310.772 39.158 310.77C39.158 310.772 39.158 310.774 39.158 310.777ZM39.1608 310.736C39.1608 310.732 39.1608 310.728 39.1608 310.722C39.1608 310.728 39.1608 310.732 39.1608 310.736ZM39.1635 310.695C39.1635 310.689 39.1635 310.684 39.1635 310.677C39.1635 310.684 39.1635 310.689 39.1635 310.695ZM39.1649 310.654C39.1662 310.646 39.1662 310.637 39.1662 310.629C39.1662 310.637 39.1662 310.646 39.1649 310.654ZM39.1676 310.611C39.169 310.6 39.169 310.591 39.1703 310.58C39.169 310.589 39.169 310.602 39.1676 310.611Z" fill="#8C7B94"/>
<path d="M39.0375 306.485C38.8772 304.933 38.6006 303.263 38.2198 301.513C38.6006 303.265 38.8772 304.933 39.0375 306.485Z" fill="#B9AFBE"/>
<path d="M39.1704 310.57C39.2375 309.334 39.191 307.962 39.0376 306.484C39.191 307.962 39.2375 309.336 39.1704 310.57Z" fill="#8C7B94"/>
<path d="M17.3544 306.425C13.4385 302.251 10.0034 297.214 7.42295 291.894C7.42158 291.892 7.42021 291.891 7.41884 291.89C9.99928 297.211 13.4358 302.25 17.3544 306.425Z" fill="#371A45"/>
<path d="M38.2116 301.479C38.2116 301.474 38.2102 301.468 38.2089 301.463C38.2102 301.468 38.2116 301.474 38.2116 301.479ZM38.1979 301.413V301.412V301.413Z" fill="#B9AFBE"/>
<path d="M36.3708 317.386C37.8597 316.204 38.9184 314.168 39.1526 310.858C39.1526 310.844 39.154 310.832 39.1554 310.818C39.1554 310.817 39.1554 310.814 39.1554 310.813C39.1567 310.8 39.1567 310.788 39.1581 310.777C39.1581 310.774 39.1581 310.772 39.1581 310.77C39.1595 310.758 39.1595 310.747 39.1608 310.736C39.1608 310.732 39.1608 310.728 39.1608 310.722C39.1622 310.714 39.1622 310.705 39.1636 310.695C39.1636 310.689 39.1636 310.684 39.1636 310.677C39.1649 310.669 39.1649 310.662 39.1649 310.654C39.1663 310.646 39.1663 310.637 39.1663 310.629C39.1677 310.624 39.1677 310.617 39.1677 310.611C39.169 310.602 39.1691 310.589 39.1704 310.58C39.1704 310.576 39.1704 310.573 39.1704 310.57C39.2375 309.336 39.191 307.962 39.0376 306.485C38.8773 304.933 38.6007 303.265 38.2199 301.513C38.2171 301.502 38.2144 301.491 38.2117 301.478C38.2117 301.473 38.2103 301.468 38.2089 301.462C38.2048 301.446 38.2021 301.429 38.198 301.413V301.411C38.0829 300.892 37.961 300.365 37.8281 299.832C37.8898 300.081 37.9501 300.329 38.0076 300.577C36.301 295.37 33.9192 289.88 31.1031 284.843C32.1509 292.137 32.244 302.736 26.6298 304.327C26.0052 304.504 25.382 304.586 24.7602 304.586C18.5283 304.586 12.5127 296.286 7.42302 291.894C10.0035 297.213 13.4386 302.251 17.3544 306.424C23.0262 312.469 29.7088 316.705 36.2736 317.376C36.2832 317.376 36.2941 317.378 36.3037 317.379C36.3051 317.379 36.3065 317.379 36.3078 317.379C36.3174 317.38 36.327 317.382 36.3352 317.382C36.338 317.382 36.338 317.382 36.3407 317.383C36.3503 317.383 36.3613 317.384 36.3708 317.386ZM37.8254 299.823C37.824 299.814 37.8213 299.806 37.82 299.798C37.8213 299.806 37.824 299.814 37.8254 299.823Z" fill="#695F6E"/>
<path d="M37.6665 299.192C33.337 282.414 20.5156 259.939 8.40095 259.939C8.33931 259.939 8.27766 259.941 8.21466 259.942C8.27766 259.941 8.33794 259.941 8.40095 259.941C20.5156 259.941 33.3329 282.411 37.6665 299.192Z" fill="white"/>
<path d="M5.08637 260.531C6.12047 260.152 7.16413 259.963 8.21466 259.943C7.16413 259.962 6.12047 260.152 5.08637 260.531Z" fill="#C3BAC7"/>
<path d="M37.8281 299.832C37.8281 299.828 37.8268 299.825 37.8254 299.822C37.8268 299.825 37.8281 299.829 37.8281 299.832ZM37.8199 299.798C37.7706 299.598 37.7186 299.395 37.6665 299.192C33.3329 282.411 20.5156 259.941 8.40096 259.941C8.33795 259.941 8.27767 259.941 8.21467 259.942C7.16414 259.963 6.12048 260.152 5.08638 260.531C4.26184 262.284 3.56057 264.407 3.01955 266.96C1.78822 272.737 2.65659 279.438 4.97543 286.027C4.00434 281.437 3.83724 276.939 4.69876 272.898C4.72478 272.777 4.75081 272.658 4.77684 272.54C5.58357 268.897 8.81732 266.534 12.2511 266.534C13.4071 266.534 14.5863 266.801 15.7026 267.378C21.2881 270.267 26.7216 277.008 31.1031 284.842C30.8634 283.18 30.5744 281.688 30.2922 280.514C33.652 286.831 36.3106 293.716 37.8199 299.798Z" fill="#DADADA"/>
<path d="M38.0076 300.577C37.95 300.329 37.8898 300.082 37.8281 299.832C37.8281 299.83 37.8268 299.825 37.8254 299.823C37.824 299.814 37.8213 299.806 37.8199 299.798C36.3106 293.717 33.652 286.831 30.2923 280.515C30.5744 281.688 30.8634 283.18 31.1031 284.843C33.9191 289.88 36.301 295.37 38.0076 300.577Z" fill="#D2CFD3"/>
<path d="M8.3913 262.408C10.565 262.408 12.9235 263.357 15.4341 265.246C26.9653 273.923 37.5254 298.997 36.6981 310.684C36.5693 312.492 36.1626 313.867 35.4832 314.786C28.7048 313.646 21.1346 308.105 15.0054 299.735C7.26133 289.161 3.50162 276.498 5.42599 267.474C5.81498 265.64 6.30256 263.995 6.88193 262.567C7.37501 262.461 7.87768 262.408 8.3913 262.408ZM37.1227 319.931L37.9007 319.313C40.0949 317.572 41.3413 314.786 41.607 311.031C42.5342 297.945 31.2277 270.97 18.3939 261.312C12.277 256.71 7.32021 257.091 4.23847 258.221L3.28931 258.569L2.85925 259.485C1.92788 261.467 1.1718 263.81 0.61161 266.451C-1.62505 276.94 2.36753 290.809 11.0348 302.644C18.4296 312.742 27.5775 319.008 36.1352 319.835L37.1227 319.931Z" fill="#1A1A1A"/>
<path d="M19.3459 273.435C21.8894 273.435 23.8042 273.322 24.3561 273.287C25.7121 273.198 26.7394 272.027 26.6517 270.671C26.5627 269.315 25.3943 268.282 24.0356 268.375C18.1023 268.76 7.5093 268.453 4.34949 265.986C3.27704 265.149 1.7307 265.34 0.895203 266.411C0.0583382 267.483 0.248735 269.03 1.31981 269.865C5.20554 272.899 13.781 273.435 19.3459 273.435Z" fill="#1A1A1A"/>
<path d="M19.3034 285.214C25.9175 285.214 31.0099 283.618 31.3893 283.496C32.6823 283.08 33.3945 281.694 32.9768 280.399C32.5604 279.106 31.1743 278.395 29.8841 278.809C29.7361 278.857 15.0027 283.429 4.3248 276.118C3.20305 275.349 1.67177 275.636 0.904762 276.757C0.136383 277.879 0.42263 279.41 1.54438 280.179C7.29696 284.118 13.8234 285.214 19.3034 285.214Z" fill="#1A1A1A"/>
<path d="M23.4728 296.375C31.9852 296.375 36.2832 293.299 36.553 293.099C37.6446 292.289 37.8747 290.748 37.0653 289.655C36.2613 288.571 34.7327 288.338 33.6425 289.129C33.4644 289.253 25.0438 294.872 7.6148 288.104C6.34923 287.612 4.92205 288.239 4.43034 289.508C3.93863 290.773 4.5673 292.2 5.83424 292.692C12.9757 295.466 18.8474 296.375 23.4728 296.375Z" fill="#1A1A1A"/>
<path d="M25.8025 309.277C34.1012 309.277 39.6607 305.423 39.9798 305.197C41.0879 304.41 41.3481 302.873 40.5606 301.766C39.7757 300.659 38.2458 300.398 37.1364 301.179C36.7529 301.447 28.2172 307.23 16.8147 302.503C15.5587 301.983 14.1192 302.578 13.5988 303.834C13.0783 305.09 13.6741 306.53 14.9301 307.05C18.8747 308.686 22.5495 309.277 25.8025 309.277Z" fill="#1A1A1A"/>
</svg>
