<svg width="470" height="140" viewBox="0 0 470 140" fill="none" xmlns="http://www.w3.org/2000/svg">
  <path
    d="M451.928 139.055H17.3819C7.82183 139.055 0 131.233 0 121.673V17.3817C0 7.8217 7.82183 -0.00012207 17.3819 -0.00012207H451.928C461.488 -0.00012207 469.31 7.8217 469.31 17.3817V121.673C469.31 131.233 461.488 139.055 451.928 139.055Z"
    fill="black"/>
  <path
    d="M451.928 -0.00012207H17.3819C7.82183 -0.00012207 0 7.8217 0 17.3817V121.673C0 131.233 7.82183 139.055 17.3819 139.055H451.928C461.488 139.055 469.31 131.233 469.31 121.673V17.3817C469.31 7.8217 461.488 -0.00012207 451.928 -0.00012207ZM451.928 2.77957C459.979 2.77957 466.529 9.33046 466.529 17.3817V121.673C466.529 129.724 459.979 136.275 451.928 136.275H17.3819C9.33051 136.275 2.78246 129.724 2.78246 121.673V17.3817C2.78246 9.33046 9.33051 2.77957 17.3819 2.77957H451.928Z"
    fill="#A2A2A1"/>
  <path
    d="M154.576 23.5519C151.47 23.5519 148.793 24.6342 146.642 26.7906C144.486 28.9473 143.398 31.6378 143.398 34.7754C143.398 37.9076 144.485 40.6083 146.642 42.7602C148.793 44.9163 151.47 46.0091 154.576 46.0091C157.814 46.0091 160.451 44.948 162.464 42.8213L162.469 42.8161C164.251 41.0308 165.158 38.5983 165.158 35.6206C165.158 35.0982 165.099 34.5544 165.01 33.9961L164.965 33.7059H154.23V36.8937H161.594C161.328 38.6232 160.718 40.0722 159.526 41.0847C158.225 42.1899 156.575 42.7499 154.576 42.7499C152.388 42.7499 150.571 42.0062 149.061 40.499C147.577 38.9574 146.836 37.0837 146.836 34.7753C146.836 32.4611 147.578 30.5974 149.061 29.0616C150.571 27.5492 152.388 26.8057 154.576 26.8057C155.698 26.8057 156.75 26.9975 157.723 27.4168C158.693 27.8317 159.455 28.4043 160.061 29.1482L160.305 29.4487L162.724 27.0298L162.51 26.7854C161.603 25.753 160.442 24.9581 159.037 24.3869C157.626 23.8214 156.152 23.5518 154.576 23.5518L154.576 23.5519ZM248.224 23.5519C245.121 23.5519 242.484 24.6366 240.362 26.7906C238.235 28.9172 237.174 31.6134 237.174 34.7754C237.174 37.932 238.235 40.6336 240.362 42.7602C242.484 44.9139 245.12 46.0091 248.224 46.0091C251.304 46.0091 253.973 44.9178 256.097 42.7602C258.229 40.6334 259.28 37.9315 259.28 34.7754C259.28 31.6423 258.226 28.9572 256.097 26.8263C253.973 24.6415 251.33 23.5519 248.224 23.5519ZM168.336 24.0153V45.5406H181.189V42.2866H171.707V36.3795H180.262V33.1764H171.707V27.2744H181.189V24.0153H168.682H168.336ZM183.317 24.0153V27.2744H189.128V45.5406H192.494V27.2744H197.973H198.319V24.0153H183.317ZM208.015 24.0153V45.5406H211.386V24.3616V24.0153H208.015ZM214.08 24.0153V27.2744H219.89V45.5406H223.262V27.2744H228.741H229.087V24.0153H214.08ZM262.376 24.0153V45.5406H265.742V32.219V32.209L265.66 29.2758L275.799 45.5407H279.125V24.0154H275.759V36.5578L275.84 39.491L266.17 24.0154L262.376 24.0153ZM248.224 26.8059C250.415 26.8059 252.198 27.549 253.653 29.0618H253.658C255.129 30.5382 255.853 32.4312 255.853 34.7754C255.853 37.1139 255.129 39.0231 253.658 40.4992H253.653C252.198 42.0067 250.415 42.75 248.224 42.75C246.034 42.75 244.259 42.009 242.775 40.4992C241.326 38.9872 240.606 37.1144 240.606 34.7754C240.606 32.4307 241.326 30.568 242.775 29.0618C244.259 27.5467 246.034 26.8059 248.224 26.8059Z"
    fill="white"/>
  <path
    d="M371.75 104.291H378.237V60.831H371.75V104.291ZM430.177 76.4871L422.741 95.3287H422.519L414.801 76.4871H407.814L419.39 102.821L412.788 117.47H419.553L437.391 76.4871H430.177ZM393.387 99.3551C391.266 99.3551 388.301 98.2916 388.301 95.6642C388.301 92.3098 391.993 91.0239 395.177 91.0239C398.028 91.0239 399.373 91.6379 401.104 92.4771C400.6 96.5034 397.134 99.3551 393.387 99.3551ZM394.172 75.5364C389.476 75.5364 384.612 77.6058 382.6 82.1905L388.356 84.594C389.587 82.1905 391.878 81.4083 394.284 81.4083C397.638 81.4083 401.049 83.4194 401.104 86.999V87.4457C399.929 86.7748 397.412 85.7687 394.339 85.7687C388.13 85.7687 381.814 89.1783 381.814 95.5526C381.814 101.368 386.903 105.114 392.605 105.114C396.964 105.114 399.373 103.157 400.878 100.864H401.104V104.221H407.369V87.5569C407.369 79.8411 401.605 75.5364 394.172 75.5364ZM354.083 81.7775H344.857V66.8809H354.083C358.932 66.8809 361.686 70.8951 361.686 74.329C361.686 77.6969 358.932 81.7775 354.083 81.7775ZM353.916 60.831H338.372V104.291H344.857V87.826H353.916C361.105 87.826 368.173 82.6222 368.173 74.329C368.173 66.0375 361.105 60.831 353.916 60.831ZM269.157 99.363C264.676 99.363 260.925 95.6096 260.925 90.459C260.925 85.2486 264.676 81.442 269.157 81.442C273.582 81.442 277.054 85.2486 277.054 90.459C277.054 95.6096 273.582 99.363 269.157 99.363ZM276.606 78.9206H276.382C274.926 77.1848 272.124 75.6167 268.598 75.6167C261.204 75.6167 254.428 82.1143 254.428 90.459C254.428 98.7467 261.204 105.187 268.598 105.187C272.124 105.187 274.926 103.619 276.382 101.828H276.606V103.954C276.606 109.613 273.582 112.636 268.709 112.636C264.734 112.636 262.27 109.78 261.261 107.372L255.605 109.724C257.228 113.643 261.539 118.461 268.709 118.461C276.327 118.461 282.768 113.98 282.768 103.058V76.5129H276.606V78.9206ZM287.249 104.291H293.743V60.831H287.249V104.291ZM303.321 89.9539C303.154 84.2408 307.748 81.3294 311.05 81.3294C313.628 81.3294 315.81 82.6181 316.541 84.4651L303.321 89.9539ZM323.482 85.0244C322.251 81.7219 318.499 75.6167 310.826 75.6167C303.208 75.6167 296.88 81.6092 296.88 90.402C296.88 98.6911 303.154 105.187 311.553 105.187C318.329 105.187 322.251 101.044 323.876 98.6351L318.835 95.2741C317.154 97.7389 314.859 99.363 311.553 99.363C308.25 99.363 305.897 97.8505 304.387 94.882L324.154 86.7056L323.482 85.0244ZM165.976 80.1533V86.4257H180.985C180.537 89.9539 179.361 92.5299 177.568 94.3223C175.384 96.5058 171.967 98.9149 165.976 98.9149C156.735 98.9149 149.51 91.4665 149.51 82.2256C149.51 72.9847 156.735 65.5352 165.976 65.5352C170.961 65.5352 174.6 67.4959 177.289 70.0162L181.714 65.5908C177.961 62.007 172.977 59.2628 165.976 59.2628C153.317 59.2628 142.676 69.5681 142.676 82.2256C142.676 94.882 153.317 105.187 165.976 105.187C172.808 105.187 177.961 102.947 181.993 98.7467C186.137 94.6022 187.426 88.7778 187.426 84.0726C187.426 82.6181 187.313 81.2738 187.089 80.1533H165.976ZM204.49 99.363C200.009 99.363 196.144 95.6666 196.144 90.402C196.144 85.0814 200.009 81.442 204.49 81.442C208.97 81.442 212.834 85.0814 212.834 90.402C212.834 95.6666 208.97 99.363 204.49 99.363ZM204.49 75.6167C196.311 75.6167 189.647 81.8331 189.647 90.402C189.647 98.9149 196.311 105.187 204.49 105.187C212.666 105.187 219.331 98.9149 219.331 90.402C219.331 81.8331 212.666 75.6167 204.49 75.6167ZM236.865 99.363C232.387 99.363 228.521 95.6666 228.521 90.402C228.521 85.0814 232.387 81.442 236.865 81.442C241.346 81.442 245.21 85.0814 245.21 90.402C245.21 95.6666 241.346 99.363 236.865 99.363ZM236.865 75.6167C228.689 75.6167 222.025 81.8331 222.025 90.402C222.025 98.9149 228.689 105.187 236.865 105.187C245.044 105.187 251.708 98.9149 251.708 90.402C251.708 81.8331 245.044 75.6167 236.865 75.6167Z"
    fill="white"/>
  <path
    d="M72.0151 67.5258L35.0039 106.809C35.0053 106.817 35.0081 106.824 35.0095 106.832C36.1445 111.097 40.0405 114.238 44.6644 114.238C46.5128 114.238 48.2482 113.739 49.7364 112.861L49.8546 112.792L91.5154 88.7522L72.0151 67.5258Z"
    fill="#EB3131"/>
  <path
    d="M109.465 60.8361L109.429 60.8118L91.4431 50.3851L71.1797 68.4164L91.5137 88.7476L109.405 78.4245C112.542 76.7311 114.671 73.4244 114.671 69.6112C114.671 65.8254 112.57 62.535 109.465 60.8361Z"
    fill="#F6B60B"/>
  <path
    d="M35.0074 32.2512C34.7849 33.0716 34.668 33.9309 34.668 34.8233V104.238C34.668 105.129 34.7835 105.991 35.0088 106.809L73.2937 68.5306L35.0074 32.2512Z"
    fill="#5778C5"/>
  <path
    d="M72.2894 69.5303L91.4463 50.379L49.8327 26.2523C48.3201 25.3463 46.5548 24.8235 44.6658 24.8235C40.0419 24.8235 36.1407 27.9699 35.0053 32.2406C35.0039 32.2448 35.0039 32.2476 35.0039 32.2514L72.2894 69.5303Z"
    fill="#3BAD49"/>
</svg>
