<svg width="470" height="140" viewBox="0 0 470 140" fill="none" xmlns="http://www.w3.org/2000/svg">
  <path
    d="M466.197 123.585C466.197 125.335 465.852 127.068 465.181 128.684C464.511 130.301 463.528 131.77 462.29 133.007C461.051 134.244 459.581 135.224 457.963 135.893C456.345 136.561 454.612 136.905 452.861 136.903H16.4468C12.9096 136.906 9.51584 135.505 7.01176 133.008C4.50767 130.51 3.09836 127.121 3.09375 123.585V17.3761C3.09836 13.8383 4.50712 10.4469 7.0107 7.94661C9.51428 5.44629 12.908 4.04145 16.4468 4.04053H452.857C454.609 4.04053 456.343 4.38549 457.962 5.05571C459.58 5.72593 461.05 6.70828 462.288 7.94665C463.527 9.18502 464.509 10.6551 465.179 12.2731C465.849 13.891 466.194 15.625 466.193 17.3761L466.197 123.585Z"
    fill="white"/>
  <path
    d="M452.863 140.001H16.4487C12.0913 140 7.91229 138.271 4.82856 135.193C1.74482 132.115 0.00829088 127.94 0 123.584L0 17.3792C0.0064461 13.0209 1.74183 8.84299 4.82547 5.76213C7.9091 2.68127 12.0892 0.948991 16.4487 0.945312L452.859 0.945313C457.218 0.950827 461.397 2.68369 464.481 5.76415C467.564 8.84462 469.3 13.0214 469.308 17.3792V123.584C469.315 132.639 461.924 140.001 452.863 140.001Z"
    fill="#A6A6A6"/>
  <path
    d="M466.197 123.585C466.197 125.335 465.852 127.068 465.181 128.684C464.511 130.301 463.528 131.77 462.29 133.007C461.051 134.244 459.581 135.224 457.963 135.893C456.345 136.561 454.612 136.905 452.861 136.903H16.4468C12.9096 136.906 9.51584 135.505 7.01176 133.008C4.50767 130.51 3.09836 127.121 3.09375 123.585V17.3761C3.09836 13.8383 4.50712 10.4469 7.0107 7.94661C9.51428 5.44629 12.908 4.04145 16.4468 4.04053H452.857C454.609 4.04053 456.343 4.38549 457.962 5.05571C459.58 5.72593 461.05 6.70828 462.288 7.94665C463.527 9.18502 464.509 10.6551 465.179 12.2731C465.849 13.891 466.194 15.625 466.193 17.3761L466.197 123.585Z"
    fill="black"/>
  <path
    d="M104.803 69.7406C104.703 58.5331 113.983 53.0806 114.407 52.8268C109.151 45.1662 101.005 44.1195 98.1425 44.0361C91.3008 43.3162 84.6643 48.1289 81.179 48.1289C77.6243 48.1289 72.2573 44.1056 66.4729 44.2238C59.0295 44.3386 52.066 48.647 48.2468 55.3374C40.3651 68.979 46.2434 89.0259 53.7947 100.053C57.5721 105.456 61.986 111.483 67.7634 111.27C73.4156 111.041 75.5269 107.671 82.3477 107.671C89.106 107.671 91.0886 111.27 96.9808 111.135C103.047 111.041 106.866 105.71 110.511 100.261C114.876 94.075 116.629 87.9757 116.699 87.6628C116.56 87.6141 104.922 83.1701 104.803 69.7406ZM93.673 36.7823C96.713 32.9816 98.793 27.8108 98.2156 22.5635C93.8156 22.7582 88.313 25.6062 85.1443 29.3234C82.3408 32.5991 79.8364 37.9681 80.4834 43.0172C85.426 43.3858 90.5008 40.5239 93.673 36.7823Z"
    fill="white"/>
  <path
    d="M452.854 0.945313H219.098L310.656 140.001H452.854C457.213 139.997 461.392 138.266 464.475 135.186C467.558 132.107 469.295 127.931 469.303 123.574V17.3792C469.296 13.0211 467.56 8.8438 464.476 5.76314C461.393 2.68248 457.214 0.949909 452.854 0.945312V0.945313Z"
    fill="url(#paint0_linear_1302_2398)"/>
  <path
    d="M186.653 110.495H178.753L174.426 96.9023H159.386L155.265 110.495H147.574L162.479 64.2187H171.682L186.653 110.495ZM173.122 91.1994L169.209 79.1157C168.795 77.8812 168.016 74.9741 166.875 70.398H166.736C166.277 72.3661 165.543 75.2732 164.538 79.1157L160.691 91.1994H173.122ZM224.906 93.4006C224.906 99.0756 223.366 103.561 220.28 106.854C217.519 109.786 214.086 111.25 209.992 111.25C205.571 111.25 202.392 109.675 200.461 106.517V124.026H193.046V88.0942C193.046 84.5299 192.952 80.8752 192.771 77.1266H199.293L199.706 82.4157H199.846C202.319 78.4306 206.072 76.4381 211.108 76.4381C215.046 76.4381 218.333 77.9925 220.962 81.1047C223.588 84.2239 224.906 88.3202 224.906 93.4006ZM217.352 93.6718C217.352 90.424 216.621 87.7464 215.153 85.6357C213.55 83.4415 211.397 82.3426 208.698 82.3426C206.868 82.3426 205.206 82.9546 203.72 84.1613C202.232 85.3783 201.258 86.9675 200.802 88.9357C200.599 89.6717 200.483 90.4293 200.458 91.1925V96.7597C200.458 99.1834 201.202 101.232 202.691 102.908C204.179 104.577 206.113 105.415 208.493 105.415C211.286 105.415 213.459 104.333 215.014 102.188C216.573 100.035 217.352 97.1978 217.352 93.6718ZM263.296 93.4006C263.296 99.0756 261.755 103.561 258.67 106.854C255.905 109.786 252.475 111.25 248.378 111.25C243.957 111.25 240.778 109.675 238.847 106.517V124.026H231.432V88.0942C231.432 84.5299 231.338 80.8752 231.157 77.1266H237.679L238.093 82.4157H238.232C240.701 78.4306 244.454 76.4381 249.494 76.4381C253.428 76.4381 256.715 77.9925 259.352 81.1047C261.974 84.2239 263.296 88.3202 263.296 93.4006ZM255.738 93.6718C255.738 90.424 255.004 87.7464 253.536 85.6357C251.933 83.4415 249.786 82.3426 247.087 82.3426C245.258 82.3426 243.595 82.9546 242.103 84.1613C240.614 85.3783 239.644 86.9675 239.188 88.9357C238.962 89.8537 238.84 90.6013 238.84 91.1925V96.7597C238.84 99.1834 239.588 101.232 241.07 102.908C242.559 104.573 244.493 105.415 246.879 105.415C249.675 105.415 251.849 104.333 253.4 102.188C254.959 100.035 255.738 97.1978 255.738 93.6718ZM306.218 97.5143C306.218 101.454 304.84 104.657 302.103 107.129C299.091 109.828 294.886 111.18 289.494 111.18C284.513 111.18 280.52 110.22 277.508 108.298L279.223 102.118C282.475 104.045 286.047 105.004 289.936 105.004C292.733 105.004 294.906 104.372 296.458 103.116C298.013 101.857 298.799 100.174 298.799 98.0741C298.799 96.1929 298.148 94.6176 296.872 93.3345C295.588 92.0548 293.466 90.8621 290.486 89.7668C282.381 86.7449 278.326 82.3252 278.326 76.5111C278.326 72.7139 279.759 69.6051 282.618 67.1745C285.477 64.7473 289.268 63.5337 293.985 63.5337C298.197 63.5337 301.706 64.2674 304.493 65.7314L302.632 71.775C300.009 70.3562 297.049 69.6469 293.738 69.6469C291.122 69.6469 289.07 70.2902 287.602 71.5698C286.367 72.7139 285.741 74.1083 285.741 75.7635C285.741 77.5891 286.454 79.1052 287.873 80.2945C289.105 81.3898 291.352 82.5826 294.6 83.8622C298.586 85.4688 301.515 87.3396 303.39 89.4886C305.279 91.6376 306.218 94.3186 306.218 97.5143ZM330.799 82.6904H322.625V98.8913C322.625 103.012 324.065 105.067 326.952 105.067C328.277 105.067 329.376 104.956 330.246 104.723L330.451 110.353C328.99 110.899 327.066 111.173 324.684 111.173C321.755 111.173 319.466 110.28 317.814 108.492C316.169 106.705 315.341 103.711 315.341 99.4964V82.6765H310.472V77.1127H315.341V71.003L322.625 68.8053V77.1127H330.799V82.6904ZM367.606 93.5362C367.606 98.6653 366.138 102.876 363.209 106.169C360.145 109.56 356.068 111.25 350.987 111.25C346.082 111.25 342.183 109.626 339.275 106.381C336.367 103.13 334.913 99.0339 334.913 94.0926C334.913 88.9218 336.416 84.6864 339.411 81.3933C342.413 78.0968 346.454 76.4485 351.536 76.4485C356.433 76.4485 360.367 78.0759 363.345 81.3238C366.19 84.4742 367.606 88.5427 367.606 93.5362ZM359.919 93.7066C359.919 90.65 359.258 88.0281 357.933 85.8339C356.378 83.1841 354.152 81.8593 351.268 81.8593C348.298 81.8593 346.02 83.1841 344.468 85.8339C343.14 88.0281 342.479 90.6952 342.479 93.8457C342.479 96.9057 343.14 99.5346 344.468 101.722C346.072 104.372 348.308 105.696 351.206 105.696C354.04 105.696 356.263 104.344 357.87 101.656C359.233 99.4094 359.919 96.7701 359.919 93.7066ZM391.72 83.6466C390.949 83.5074 390.167 83.4388 389.383 83.4415C386.774 83.4415 384.757 84.4221 383.338 86.3972C382.107 88.1359 381.487 90.3336 381.487 92.9868V110.495H374.072V87.6351C374.078 84.1323 374.006 80.6297 373.856 77.1301H380.315L380.587 83.5145H380.792C381.578 81.3203 382.809 79.5503 384.5 78.2255C386.047 77.0678 387.927 76.4408 389.86 76.4381C390.545 76.4381 391.164 76.4868 391.714 76.5737L391.72 83.6466ZM424.886 92.2322C424.904 93.3592 424.814 94.4854 424.614 95.5948H402.367C402.451 98.8913 403.529 101.416 405.595 103.155C407.47 104.705 409.894 105.484 412.872 105.484C416.166 105.484 419.171 104.963 421.874 103.909L423.035 109.052C419.877 110.429 416.148 111.114 411.846 111.114C406.67 111.114 402.607 109.591 399.651 106.552C396.701 103.509 395.223 99.4199 395.223 94.2977C395.223 89.2695 396.597 85.0793 399.348 81.7376C402.228 78.1698 406.12 76.3859 411.018 76.3859C415.828 76.3859 419.47 78.1698 421.943 81.7376C423.901 84.5646 424.886 88.0698 424.886 92.2322ZM417.814 90.3092C417.867 88.1081 417.38 86.2129 416.374 84.6099C415.091 82.5443 413.115 81.515 410.468 81.515C408.044 81.515 406.068 82.52 404.566 84.5368C403.331 86.1399 402.597 88.0663 402.371 90.3023L417.814 90.3092Z"
    fill="white"/>
  <path
    d="M157.262 47.8577C155.199 47.8577 153.415 47.7569 151.93 47.5865V25.2133C154.007 24.8925 156.106 24.7344 158.208 24.7404C166.712 24.7404 170.629 28.9236 170.629 35.7427C170.629 43.6084 166.003 47.8577 157.262 47.8577ZM158.507 27.6092C157.359 27.6092 156.382 27.6787 155.571 27.8456V44.8533C156.01 44.9229 156.851 44.9541 158.034 44.9541C163.606 44.9541 166.778 41.7828 166.778 35.8435C166.778 30.5475 163.909 27.6092 158.507 27.6092ZM182.834 48.0281C178.041 48.0281 174.935 44.4499 174.935 39.5921C174.935 34.5291 178.107 30.9196 183.105 30.9196C187.829 30.9196 191.004 34.3274 191.004 39.3243C191.004 44.4499 187.731 48.0281 182.834 48.0281ZM182.973 33.5832C180.34 33.5832 178.653 36.0452 178.653 39.4878C178.653 42.8643 180.375 45.3262 182.938 45.3262C185.502 45.3262 187.224 42.6939 187.224 39.4182C187.224 36.08 185.537 33.5832 182.973 33.5832ZM218.337 31.2569L213.206 47.656H209.864L207.738 40.5344C207.21 38.7925 206.77 37.0249 206.42 35.2385H206.351C206.083 37.0258 205.575 38.8166 205.036 40.5344L202.775 47.656H199.398L194.57 31.2569H198.316L200.173 39.0531C200.611 40.91 200.98 42.6626 201.286 44.3178H201.356C201.624 42.9373 202.062 41.2125 202.705 39.0879L205.036 31.2604H208.006L210.236 38.921C210.775 40.7779 211.213 42.6 211.554 44.3213H211.651C211.888 42.6348 212.26 40.8439 212.764 38.921L214.758 31.2604L218.337 31.2569ZM237.224 47.656H233.578V38.2394C233.578 35.3393 232.465 33.8858 230.271 33.8858C228.111 33.8858 226.625 35.7427 226.625 37.9021V47.656H222.98V35.9444C222.98 34.4943 222.945 32.9399 222.845 31.2534H226.051L226.222 33.7849H226.323C227.304 32.0323 229.293 30.9196 231.523 30.9196C234.966 30.9196 237.227 33.5519 237.227 37.836L237.224 47.656ZM247.276 47.656H243.627V23.7319H247.276V47.656ZM260.566 48.0281C255.777 48.0281 252.667 44.4499 252.667 39.5921C252.667 34.5291 255.839 30.9196 260.834 30.9196C265.561 30.9196 268.733 34.3274 268.733 39.3243C268.737 44.4499 265.46 48.0281 260.566 48.0281ZM260.702 33.5832C258.069 33.5832 256.382 36.0452 256.382 39.4878C256.382 42.8643 258.107 45.3262 260.664 45.3262C263.231 45.3262 264.949 42.6939 264.949 39.4182C264.952 36.08 263.269 33.5832 260.702 33.5832ZM283.105 47.656L282.841 45.7678H282.744C281.631 47.2874 280.006 48.0281 277.947 48.0281C275.008 48.0281 272.921 45.9695 272.921 43.2016C272.921 39.1539 276.431 37.0606 282.507 37.0606V36.7581C282.507 34.5986 281.363 33.5172 279.102 33.5172C277.485 33.5172 276.065 33.924 274.817 34.7342L274.076 32.3384C275.592 31.3925 277.485 30.9196 279.707 30.9196C283.992 30.9196 286.156 33.1799 286.156 37.7039V43.744C286.156 45.3992 286.229 46.6824 286.392 47.6595L283.105 47.656ZM282.605 39.4878C278.556 39.4878 276.525 40.4684 276.525 42.7947C276.525 44.516 277.571 45.3575 279.025 45.3575C280.879 45.3575 282.605 43.9422 282.605 42.0193V39.4878ZM303.857 47.656L303.686 45.0237H303.585C302.538 47.0127 300.778 48.0281 298.319 48.0281C294.365 48.0281 291.436 44.5508 291.436 39.6582C291.436 34.5291 294.472 30.9161 298.618 30.9161C300.813 30.9161 302.368 31.6568 303.245 33.1451H303.318V23.7319H306.966V43.2363C306.966 44.822 307.005 46.3068 307.102 47.656H303.857ZM303.318 38.0064C303.318 35.7114 301.798 33.7536 299.478 33.7536C296.775 33.7536 295.123 36.1495 295.123 39.5225C295.123 42.8295 296.838 45.0932 299.405 45.0932C301.697 45.0932 303.318 43.1007 303.318 40.7396V38.0064ZM330.1 48.0281C325.311 48.0281 322.205 44.4499 322.205 39.5921C322.205 34.5291 325.377 30.9196 330.372 30.9196C335.098 30.9196 338.271 34.3274 338.271 39.3243C338.274 44.4499 335.001 48.0281 330.1 48.0281ZM330.236 33.5832C327.606 33.5832 325.919 36.0452 325.919 39.4878C325.919 42.8643 327.641 45.3262 330.201 45.3262C332.768 45.3262 334.486 42.6939 334.486 39.4182C334.493 36.08 332.806 33.5832 330.236 33.5832ZM357.874 47.656H354.225V38.2394C354.225 35.3393 353.112 33.8858 350.918 33.8858C348.758 33.8858 347.276 35.7427 347.276 37.9021V47.656H343.627V35.9444C343.627 34.4943 343.592 32.9399 343.492 31.2534H346.698L346.869 33.7849H346.97C347.947 32.0323 349.94 30.9161 352.166 30.9161C355.61 30.9161 357.874 33.5485 357.874 37.8326V47.656ZM382.399 33.9901H378.389V41.9532C378.389 43.9805 379.092 44.9924 380.511 44.9924C381.154 44.9924 381.693 44.9229 382.128 44.822L382.229 47.59C381.523 47.8612 380.577 47.9968 379.401 47.9968C376.528 47.9968 374.81 46.4112 374.81 42.2592V33.9901H372.417V31.2569H374.81V28.2525L378.389 27.171V31.2534H382.399V33.9901ZM401.697 47.656H398.055V38.3089C398.055 35.3741 396.945 33.8892 394.747 33.8892C392.858 33.8892 391.098 35.1724 391.098 37.77V47.656H387.457V23.7319H391.098V33.5832H391.172C392.319 31.7959 393.982 30.9161 396.104 30.9161C399.575 30.9161 401.697 33.6145 401.697 37.9021V47.656ZM421.467 40.3328H410.528C410.598 43.438 412.653 45.1906 415.697 45.1906C417.314 45.1906 418.803 44.9194 420.118 44.4152L420.685 46.9467C419.133 47.6213 417.307 47.9586 415.182 47.9586C410.052 47.9586 407.015 44.7177 407.015 39.6929C407.015 34.6647 410.125 30.8848 414.772 30.8848C418.963 30.8848 421.592 33.9901 421.592 38.681C421.616 39.2346 421.574 39.789 421.467 40.3328ZM418.125 37.7352C418.125 35.2037 416.848 33.4163 414.518 33.4163C412.424 33.4163 410.768 35.2385 410.532 37.7352H418.125Z"
    fill="white"/>
  <defs>
    <linearGradient id="paint0_linear_1302_2398" x1="344.196" y1="140.37" x2="344.196" y2="-361.131"
                    gradientUnits="userSpaceOnUse">
      <stop stop-color="#1A1A1A" stop-opacity="0.1"/>
      <stop offset="0.123" stop-color="#212121" stop-opacity="0.151"/>
      <stop offset="0.308" stop-color="#353535" stop-opacity="0.227"/>
      <stop offset="0.532" stop-color="#575757" stop-opacity="0.318"/>
      <stop offset="0.783" stop-color="#858585" stop-opacity="0.421"/>
      <stop offset="1" stop-color="#B3B3B3" stop-opacity="0.51"/>
    </linearGradient>
  </defs>
</svg>
