<svg width="1051" height="1051" viewBox="0 0 1051 1051" fill="none" xmlns="http://www.w3.org/2000/svg">
  <path fill-rule="evenodd" clip-rule="evenodd"
        d="M1050.87 0C887.62 169.48 898.021 358.75 898.021 358.75L892.232 529.291C804.58 489.19 698.075 496.287 615.405 557.11C593.908 572.926 575.414 591.372 560.007 611.675V611.645L330.613 204.828C330.613 204.828 318.268 184.817 292.335 157.15C260.207 119.885 214.375 100.001 167.897 99.5944V99.6045C133.1 99.295 97.9435 109.909 67.9197 132.29C24.6304 164.558 1.25082 214.427 0.19646 265.215H0L0.17568 1051C163.429 881.518 151.6 691.096 151.6 691.096L159.17 343.269L159.175 343.207C162.279 330.672 171.718 320.077 185.032 316.072C199.89 311.602 215.262 316.628 224.707 327.672C321.054 500.572 446.198 741.573 532.887 900.179C539.719 913.849 547.774 927.116 557.118 939.817C646.271 1060.99 818.646 1087.26 939.824 998.103C1010.91 945.803 1049.31 864.854 1050.93 782.406L1051 782.458L1050.87 0ZM778.808 629.039C823.803 629.31 867.947 650.271 897.008 689.773C945.955 756.301 931.985 848.036 865.458 896.982C798.929 945.929 707.209 931.955 658.263 865.427C609.316 798.898 623.285 707.186 689.813 658.239C716.84 638.354 748.022 628.854 778.808 629.039Z"
        fill="url(#paint0_linear_841_2495)"/>
  <defs>
    <linearGradient id="paint0_linear_841_2495" x1="940.238" y1="909.462" x2="264.167" y2="162.461"
                    gradientUnits="userSpaceOnUse">
      <stop stop-color="#D56929"/>
      <stop offset="1" stop-color="#F2951C"/>
    </linearGradient>
  </defs>
</svg>
